<svg width="766" height="210" viewBox="0 0 766 210" fill="none" xmlns="http://www.w3.org/2000/svg">
<path d="M93.6268 203.338H155.279V8.3071H102.761L0.409424 36.3798V94.2713L93.6268 68.2134V203.338Z" fill="#E33A30"/>
<path d="M177.109 139.94C176.93 160.177 188.033 176.34 210.42 188.429C232.896 200.428 262.491 206.428 299.205 206.428C338.784 206.428 368.424 199.801 388.124 186.548C407.824 173.296 417.674 156.013 417.674 134.701C417.764 114.553 408.675 98.7933 390.407 87.421C372.23 76.0487 347.873 70.3625 317.338 70.3625C298.623 70.3625 282.773 72.1086 269.789 75.6009C256.805 79.0932 247.223 82.6751 241.045 86.3465L244.403 60.4229H399.407V7.76983H198.063L183.556 116.971L248.701 131.746C251.835 128.97 257.566 125.702 265.894 121.941C274.221 118.18 285.549 116.3 299.876 116.3C317.338 116.3 331.038 117.643 340.978 120.329C350.918 123.016 355.887 127.985 355.887 135.239C355.887 142.223 350.918 147.506 340.978 151.088C331.128 154.67 317.159 156.461 299.07 156.461C280.176 156.461 265.132 155.028 253.939 152.163C242.836 149.297 237.284 144.686 237.284 138.328V132.955H177.109V139.94Z" fill="#E33A30"/>
<path d="M432.852 61.6317C432.852 80.705 439.926 94.6742 454.075 103.539C468.223 112.315 484.878 116.703 504.041 116.703C523.383 116.703 540.083 112.046 554.142 102.733C568.201 93.331 575.23 79.138 575.23 60.1542V59.3483C575.23 42.9614 568.335 30.1563 554.545 20.9331C540.845 11.7099 524.01 7.09823 504.041 7.09823C484.162 7.09823 467.327 11.6651 453.537 20.7988C439.747 29.9325 432.852 43.0062 432.852 60.0199V61.6317ZM473.819 63.2436V57.7365C473.819 53.5278 476.909 49.7669 483.087 46.4537C489.266 43.1405 496.251 41.4839 504.041 41.4839C512.369 41.4839 519.488 43.0957 525.398 46.3194C531.308 49.543 534.263 53.3487 534.263 57.7365V63.2436C534.263 69.3327 531.442 74.0339 525.801 77.3471C520.159 80.6603 512.862 82.3169 503.907 82.3169C495.221 82.3169 488.012 80.526 482.282 76.9441C476.64 73.2727 473.819 68.7059 473.819 63.2436ZM694.774 22.4106L660.389 0.516602L504.847 186.683L538.293 209.786L694.774 22.4106ZM622.779 151.76C622.779 170.833 629.853 184.802 644.002 193.667C658.15 202.443 674.805 206.831 693.968 206.831C713.31 206.831 730.011 202.174 744.069 192.861C758.128 183.459 765.157 169.266 765.157 150.282V149.476C765.157 133.089 758.262 120.284 744.472 111.061C730.772 101.838 713.937 97.2263 693.968 97.2263C674.089 97.2263 657.254 101.793 643.464 110.927C629.674 120.061 622.779 133.134 622.779 150.148V151.76ZM663.747 153.372V147.865C663.747 143.656 666.836 139.895 673.015 136.582C679.193 133.269 686.178 131.612 693.968 131.612C702.296 131.612 709.415 133.224 715.325 136.447C721.235 139.671 724.19 143.477 724.19 147.865V153.372C724.19 159.461 721.369 164.162 715.728 167.475C710.087 170.788 702.789 172.445 693.834 172.445C685.148 172.445 677.94 170.654 672.209 167.072C666.567 163.401 663.747 158.834 663.747 153.372Z" fill="#E33A30"/>
</svg>
