<svg width="525" height="202" viewBox="0 0 525 202" fill="none" xmlns="http://www.w3.org/2000/svg">
<path d="M0.513184 74.9999H23.671V48.1429H73.0271V74.9999H96.2356V1.21919H73.0271V25.6439H23.671V1.21919H0.513184V74.9999Z" fill="black"/>
<path d="M101.262 74.9999H128.727L154.723 30.2045C155.5 28.8532 156.226 27.5863 156.902 26.404C157.611 25.1878 158.186 24.225 158.625 23.5156H158.828C159.301 24.1912 159.875 25.1202 160.55 26.3026C161.26 27.4512 162.02 28.7012 162.831 30.0525L188.826 74.9999H216.089L171.547 0.96582H145.652L101.262 74.9999ZM122.9 62.5849H194.046L186.09 44.3931H131.109L122.9 62.5849Z" fill="black"/>
<path d="M220.051 1.21919V74.9999H332.445V1.21919H310.453V53.7677H287.194V1.21919H265.252V53.7677H241.993V1.21919H220.051Z" fill="black"/>
<path d="M426.056 74.9999V1.21919H401.023L370.568 37.3494C369.724 38.2954 369.149 38.9541 368.845 39.3257C368.575 39.6973 368.288 40.2041 367.984 40.8459H367.781C367.781 40.0014 367.781 39.3257 367.781 38.819C367.781 38.3122 367.781 37.6366 367.781 36.792V1.21919H345.839V74.9999H370.822L401.327 38.1096C402.172 37.265 402.763 36.5556 403.101 35.9813C403.438 35.407 403.726 34.8664 403.962 34.3597H404.165C404.199 34.8664 404.199 35.3563 404.165 35.8292C404.131 36.3022 404.114 37.0961 404.114 38.2109L404.063 74.9999H426.056Z" fill="black"/>
<path d="M59.4972 200H88.3812L41.1534 153.482L23.823 165.035L59.4972 200ZM11.56 151.505V172.89H36.8461L87.4184 126.219H55.8487L28.8904 151.505H11.56ZM0.513184 200H22.5055V126.219H0.513184V200Z" fill="black"/>
<path d="M108.103 200H190.752V179.629H129.994V172.231H184.316V153.431H129.994V147.198H189.84V126.219H108.103V200Z" fill="black"/>
<path d="M286.484 200V126.219H261.452L230.997 162.349C230.152 163.295 229.578 163.954 229.274 164.326C229.004 164.697 228.717 165.204 228.413 165.846H228.21C228.21 165.001 228.21 164.326 228.21 163.819C228.21 163.312 228.21 162.637 228.21 161.792V126.219H206.268V200H231.25L261.756 163.11C262.6 162.265 263.191 161.556 263.529 160.981C263.867 160.407 264.154 159.866 264.391 159.36H264.593C264.627 159.866 264.627 160.356 264.593 160.829C264.56 161.302 264.543 162.096 264.543 163.211L264.492 200H286.484ZM246.3 109.244C244.037 109.244 242.094 108.551 240.473 107.166C238.885 105.747 237.686 103.754 236.875 101.186L222.636 106.71C225.001 112.385 228.193 116.355 232.213 118.618C236.267 120.848 240.963 121.963 246.3 121.963C251.604 121.963 256.3 120.848 260.388 118.618C264.509 116.355 267.634 112.352 269.762 106.609L255.928 101.186C255.219 103.72 254.003 105.696 252.28 107.115C250.557 108.534 248.564 109.244 246.3 109.244Z" fill="black"/>
<path d="M298.265 162.045C298.265 174.849 303.569 184.629 314.177 191.385C324.784 198.142 338.922 201.52 356.59 201.52C374.157 201.52 387.366 199.02 396.217 194.02C405.068 189.021 409.983 181.301 410.963 170.863L411.216 168.43H388.008L387.704 170.559C387.13 173.43 384.495 176.116 379.799 178.616C375.137 181.082 367.519 182.315 356.945 182.315C346.574 182.315 338.331 180.693 332.216 177.45C326.102 174.173 323.044 169.055 323.044 162.096V163.87C323.044 158.937 326.034 154.427 332.014 150.34C337.993 146.252 346.32 144.208 356.996 144.208C366.556 144.208 373.566 145.526 378.025 148.161C382.485 150.762 385.643 153.448 387.501 156.218L387.907 158.144H411.216L410.811 155.762C407.872 145.12 402.382 137.283 394.342 132.249C386.302 127.216 373.667 124.699 356.438 124.699C339.311 124.699 325.325 128.01 314.481 134.631C303.67 141.219 298.265 151.015 298.265 164.022V162.045Z" fill="black"/>
<path d="M418.828 126.219H440.82V147.147H465.498C475.599 147.147 482.93 149.563 487.49 154.394C492.085 159.191 494.382 165.593 494.382 173.599C494.382 181.977 492.034 188.48 487.338 193.108C482.676 197.703 475.531 200 465.903 200H418.828V126.219ZM440.82 167.214V180.187H460.887C465.008 180.187 467.964 179.73 469.755 178.818C471.545 177.906 472.44 176.251 472.44 173.852C472.44 171.69 471.545 170.052 469.755 168.937C467.964 167.788 465.008 167.214 460.887 167.214H440.82ZM500.615 200H524.127V126.219H500.615V200Z" fill="black"/>
</svg>
