<svg width="1051" height="759" viewBox="0 0 1051 759" fill="none" xmlns="http://www.w3.org/2000/svg">
<rect x="4.0975" y="4.09756" width="1044.85" height="751.885" rx="60.4376" stroke="#99A9B6" stroke-width="4.09747"/>
<rect x="4.0975" y="4.09756" width="1044.85" height="751.885" rx="60.4376" stroke="url(#paint0_linear_282_30)" stroke-width="4.09747"/>
<rect x="26.1214" y="25.0969" width="1000.81" height="709.886" rx="38.4137" stroke="#0B0B0B" stroke-width="39.9503"/>
<circle cx="23.5604" cy="374.918" r="5.12183" fill="#06191D"/>
<circle cx="23.5604" cy="374.918" r="4.09747" fill="#111111"/>
<circle cx="23.5604" cy="374.918" r="3.0731" fill="#1F416C"/>
<path d="M0 57.3645C0 56.7987 0.458625 56.3401 1.02437 56.3401H2.04873V128.046H1.02437C0.458625 128.046 0 127.587 0 127.021V57.3645Z" fill="url(#paint1_linear_282_30)"/>
<path d="M125.997 0C126.563 0 127.021 0.458625 127.021 1.02437V2.04873L86.0468 2.04873V1.02437C86.0468 0.458625 86.5054 0 87.0712 0L125.997 0Z" fill="url(#paint2_linear_282_30)"/>
<path d="M177.215 0C177.781 0 178.24 0.458625 178.24 1.02437V2.04873L137.265 2.04873V1.02437C137.265 0.458625 137.724 0 138.289 0L177.215 0Z" fill="url(#paint3_linear_282_30)"/>
<defs>
<linearGradient id="paint0_linear_282_30" x1="526.524" y1="2.04883" x2="526.524" y2="758.031" gradientUnits="userSpaceOnUse">
<stop stop-color="#BDCCDD"/>
<stop offset="1" stop-color="white" stop-opacity="0"/>
</linearGradient>
<linearGradient id="paint1_linear_282_30" x1="1.02437" y1="56.3401" x2="1.02437" y2="128.046" gradientUnits="userSpaceOnUse">
<stop stop-color="#2F3942" stop-opacity="0.76"/>
<stop offset="0.479167" stop-color="#C2D9EB"/>
<stop offset="1" stop-color="#2F3942" stop-opacity="0.87"/>
</linearGradient>
<linearGradient id="paint2_linear_282_30" x1="127.021" y1="1.02437" x2="86.0468" y2="1.02437" gradientUnits="userSpaceOnUse">
<stop stop-color="#2F3942" stop-opacity="0.76"/>
<stop offset="0.479167" stop-color="#C2D9EB"/>
<stop offset="1" stop-color="#2F3942" stop-opacity="0.87"/>
</linearGradient>
<linearGradient id="paint3_linear_282_30" x1="178.24" y1="1.02437" x2="137.265" y2="1.02437" gradientUnits="userSpaceOnUse">
<stop stop-color="#2F3942" stop-opacity="0.76"/>
<stop offset="0.479167" stop-color="#C2D9EB"/>
<stop offset="1" stop-color="#2F3942" stop-opacity="0.87"/>
</linearGradient>
</defs>
</svg>
