<svg width="1061" height="768" viewBox="0 0 1061 768" fill="none" xmlns="http://www.w3.org/2000/svg">
<path d="M998.365 26.572H62.6836C42.5252 26.572 26.1836 42.9136 26.1836 63.072V705.008C26.1836 725.166 42.5252 741.508 62.6836 741.508H998.365C1018.52 741.508 1034.86 725.166 1034.86 705.008V384.04V63.072C1034.86 42.9136 1018.52 26.572 998.365 26.572Z" stroke="#0B0B0B" stroke-width="45"/>
<path d="M62.4864 2.04873H998.514C1031.89 2.04873 1058.95 29.1076 1058.95 62.4864V705.514C1058.95 738.892 1031.89 765.951 998.514 765.951H62.4863C29.1075 765.951 2.04873 738.892 2.04873 705.514V62.4863C2.04873 29.1076 29.1076 2.04873 62.4864 2.04873Z" stroke="#99A9B6" stroke-width="4.09747"/>
<path d="M62.4864 2.04873H998.514C1031.89 2.04873 1058.95 29.1076 1058.95 62.4864V705.514C1058.95 738.892 1031.89 765.951 998.514 765.951H62.4863C29.1075 765.951 2.04873 738.892 2.04873 705.514V62.4863C2.04873 29.1076 29.1076 2.04873 62.4864 2.04873Z" stroke="url(#paint0_linear_290_54)" stroke-width="4.09747"/>
<defs>
<linearGradient id="paint0_linear_290_54" x1="536.005" y1="0" x2="536.005" y2="768" gradientUnits="userSpaceOnUse">
<stop stop-color="#BDCCDD"/>
<stop offset="1" stop-color="white" stop-opacity="0"/>
</linearGradient>
</defs>
</svg>
