<svg width="1107" height="387" viewBox="0 0 1107 387" fill="none" xmlns="http://www.w3.org/2000/svg">
<path d="M2.21018 61.5851C2.21018 74.8813 7.7181 85.0376 18.7339 92.054C29.7848 99.0705 44.5018 102.579 62.8849 102.579C81.1628 102.579 94.8799 99.9826 104.036 94.7904C113.228 89.5983 118.35 81.582 119.402 70.7416L119.613 68.163H95.5114L95.1957 70.3732C94.5993 73.3903 91.8629 76.1968 86.9864 78.7929C82.1451 81.3539 74.234 82.6344 63.2533 82.6344C52.448 82.6344 43.8704 80.933 37.5205 77.53C31.1706 74.127 27.9956 68.812 27.9956 61.5851V63.4795C27.9956 58.3575 31.1004 53.674 37.31 49.4291C43.5546 45.1841 52.2199 43.0617 63.3059 43.0617C73.2342 43.0617 80.5138 44.4299 85.1446 47.1663C89.7755 49.9027 93.0557 52.6917 94.9852 55.5334L95.4062 57.5331H119.613L119.192 55.1124C116.14 44.0264 110.439 35.8698 102.089 30.6425C93.7398 25.4153 80.6015 22.8017 62.6744 22.8017C44.8877 22.8017 30.3637 26.2397 19.1023 33.1158C7.84088 39.9569 2.21018 50.1307 2.21018 63.6374V61.5851ZM125.185 60.9536C125.185 74.8111 131.026 85.213 142.708 92.1593C154.391 99.1056 168.88 102.579 186.175 102.579C203.471 102.579 217.995 99.1056 229.747 92.1593C241.535 85.213 247.429 74.8111 247.429 60.9536V63.4269C247.429 50.0606 241.535 39.9569 229.747 33.1158C217.995 26.2397 203.471 22.8017 186.175 22.8017C168.88 22.8017 154.391 26.2397 142.708 33.1158C131.026 39.9569 125.185 50.0606 125.185 63.4269V60.9536ZM150.444 61.2694V63.3217C150.444 56.6911 153.724 51.6744 160.284 48.2714C166.845 44.8684 175.51 43.2195 186.28 43.3248C196.981 43.43 205.646 45.1315 212.276 48.4292C218.907 51.727 222.222 56.7087 222.222 63.3743V61.4272C222.222 68.4437 218.889 73.7586 212.224 77.3721C205.593 80.9505 196.945 82.6871 186.28 82.5818C175.545 82.4766 166.88 80.6874 160.284 77.2142C153.724 73.706 150.444 68.391 150.444 61.2694ZM296.888 82.2661C289.381 82.2661 283.785 81.6697 280.102 80.4769C276.418 79.2841 274.418 76.9511 274.103 73.478L273.945 71.794H252.211L252.264 73.7411C252.86 83.8799 256.965 91.177 264.578 95.6324C272.226 100.053 282.996 102.263 296.888 102.263C310.325 102.263 320.727 100.035 328.094 95.5798C335.496 91.1243 339.198 85.3884 339.198 78.3719C339.198 73.1447 337.584 69.0927 334.356 66.2159C331.129 63.3392 326.831 61.5676 321.464 60.901V60.6905C326.13 59.6029 329.831 57.5857 332.567 54.6388C335.339 51.6568 336.742 48.2363 336.777 44.3772C336.777 37.7818 333.514 32.5896 326.989 28.8007C320.464 25.0118 310.448 23.1174 296.941 23.1174C283.259 23.1174 272.664 25.5381 265.157 30.3794C257.684 35.1857 253.579 42.2899 252.843 51.6919L252.632 54.2178H274.366L274.681 52.1129C274.997 49.587 276.909 47.4645 280.417 45.7455C283.926 43.9913 289.416 43.1143 296.888 43.1143C302.782 43.1143 306.975 43.5704 309.465 44.4825C311.956 45.3596 313.184 46.4646 313.149 47.7978C313.149 49.7624 312.026 51.078 309.781 51.7445C307.536 52.4111 304.133 52.7444 299.572 52.7444H284.364V72.3729H299.414C304.887 72.408 308.904 72.6886 311.465 73.2149C314.026 73.7411 315.307 74.8988 315.307 76.688C315.307 79.3192 313.868 80.9154 310.992 81.4767C308.15 82.003 303.449 82.2661 296.888 82.2661ZM420.301 116.05H441.771V78.6351H343.523V116.05H364.994V101H420.301V116.05ZM359.152 24.3804L357.047 60.6905C356.591 67.4263 355.855 72.5658 354.837 76.1091C353.855 79.6525 352.031 83.2659 349.364 86.9496H371.256C372.975 84.2833 374.361 81.2662 375.413 77.8983C376.501 74.5304 377.237 69.233 377.623 62.0061L378.413 46.7453H408.04V100.79H430.878V24.3804H359.152ZM444.345 101H472.867L499.916 54.4809C500.723 53.0776 501.477 51.7621 502.179 50.5342C502.88 49.2712 503.459 48.2889 503.915 47.5873H504.178C504.669 48.2538 505.266 49.2011 505.967 50.4289C506.704 51.6217 507.476 52.9198 508.283 54.3231L535.331 101H563.643L517.387 24.1172H490.444L444.345 101ZM466.816 88.1073H540.751L532.49 69.2155H475.341L466.816 88.1073ZM571.477 101H595.579V73.1096H646.834V101H670.935V24.3804H646.834V49.7448H595.579V24.3804H571.477V101ZM761.178 101V24.3804H735.13L703.503 61.9008C702.661 62.8831 702.082 63.5672 701.766 63.9531C701.451 64.304 701.152 64.8302 700.872 65.5318H700.609C700.609 64.6548 700.609 63.9531 700.609 63.4269C700.609 62.9007 700.609 62.199 700.609 61.322V24.3804H677.823V101H703.819L735.445 62.6902C736.358 61.8131 736.971 61.0764 737.287 60.48C737.638 59.8836 737.954 59.3223 738.234 58.7961H738.445C738.445 59.3223 738.427 59.831 738.392 60.3221C738.357 60.8133 738.34 61.6377 738.34 62.7954V101H761.178ZM767.543 101H853.425V79.8454H790.277V72.1624H846.742V52.6391H790.277V46.1664H852.478V24.3804H767.543V101ZM2.21018 319.585C2.21018 332.881 7.7181 343.038 18.7339 350.054C29.7848 357.07 44.5018 360.579 62.8849 360.579C81.1628 360.579 94.8799 357.983 104.036 352.79C113.228 347.598 118.35 339.582 119.402 328.742L119.613 326.163H95.5114L95.1957 328.373C94.5993 331.39 91.8629 334.197 86.9864 336.793C82.1451 339.354 74.234 340.634 63.2533 340.634C52.448 340.634 43.8704 338.933 37.5205 335.53C31.1706 332.127 27.9956 326.812 27.9956 319.585V321.48C27.9956 316.358 31.1004 311.674 37.31 307.429C43.5546 303.184 52.2199 301.062 63.3059 301.062C73.2342 301.062 80.5138 302.43 85.1446 305.166C89.7755 307.903 93.0557 310.692 94.9852 313.533L95.4062 315.533H119.613L119.192 313.112C116.14 302.026 110.439 293.87 102.089 288.643C93.7398 283.415 80.6015 280.802 62.6744 280.802C44.8877 280.802 30.3637 284.24 19.1023 291.116C7.84088 297.957 2.21018 308.131 2.21018 321.637V319.585ZM110.696 359H139.218L166.267 312.481C167.074 311.078 167.828 309.762 168.53 308.534C169.231 307.271 169.81 306.289 170.266 305.587H170.529C171.02 306.254 171.617 307.201 172.318 308.429C173.055 309.622 173.827 310.92 174.634 312.323L201.682 359H229.994L183.738 282.117H156.795L110.696 359ZM133.167 346.107H207.102L198.841 327.215H141.692L133.167 346.107ZM317.412 359V282.38H291.363L259.736 319.901C258.894 320.883 258.316 321.567 258 321.953C257.684 322.304 257.386 322.83 257.105 323.532H256.842C256.842 322.655 256.842 321.953 256.842 321.427C256.842 320.901 256.842 320.199 256.842 319.322V282.38H234.056V359H260.052L291.679 320.69C292.591 319.813 293.205 319.076 293.521 318.48C293.871 317.884 294.187 317.322 294.468 316.796H294.678C294.678 317.322 294.661 317.831 294.626 318.322C294.591 318.813 294.573 319.638 294.573 320.795V359H317.412ZM275.629 264.752C273.278 264.752 271.261 264.032 269.577 262.594C267.928 261.121 266.683 259.068 265.841 256.437L251.001 262.12C253.492 268.014 256.825 272.136 260.999 274.487C265.209 276.802 270.086 277.96 275.629 277.96C281.172 277.96 286.066 276.802 290.311 274.487C294.555 272.136 297.783 267.979 299.993 262.015L285.574 256.437C284.873 259.033 283.627 261.068 281.838 262.541C280.049 264.015 277.979 264.752 275.629 264.752ZM327.252 304.64H365.088V359H389.506V304.64H427.394V282.38H327.252V304.64ZM428.565 318.954C428.565 332.811 434.406 343.213 446.088 350.159C457.771 357.106 472.26 360.579 489.555 360.579C506.851 360.579 521.375 357.106 533.127 350.159C544.915 343.213 550.809 332.811 550.809 318.954V321.427C550.809 308.061 544.915 297.957 533.127 291.116C521.375 284.24 506.851 280.802 489.555 280.802C472.26 280.802 457.771 284.24 446.088 291.116C434.406 297.957 428.565 308.061 428.565 321.427V318.954ZM453.824 319.269V321.322C453.824 314.691 457.104 309.674 463.665 306.271C470.225 302.868 478.89 301.22 489.661 301.325C500.361 301.43 509.026 303.132 515.656 306.429C522.287 309.727 525.602 314.709 525.602 321.374V319.427C525.602 326.444 522.269 331.759 515.604 335.372C508.973 338.95 500.326 340.687 489.661 340.582C478.925 340.477 470.26 338.687 463.665 335.214C457.104 331.706 453.824 326.391 453.824 319.269ZM557.084 359H614.812C625.196 359 633.721 357.123 640.387 353.369C647.052 349.58 650.385 344.108 650.385 336.951C650.385 331.583 648.666 327.391 645.228 324.374C641.825 321.322 637.299 319.48 631.651 318.848V318.638C635.791 317.55 639.176 315.568 641.807 312.691C644.474 309.78 645.807 306.149 645.807 301.798C645.807 295.764 643.053 291.028 637.545 287.59C632.037 284.117 623.968 282.38 613.338 282.38H557.084V359ZM580.554 340.266V328.163H608.865C613.952 328.163 618.057 328.584 621.179 329.426C624.336 330.268 625.915 331.688 625.915 333.688C625.915 336.179 624.336 337.898 621.179 338.845C618.057 339.792 613.952 340.266 608.865 340.266H580.554ZM580.554 312.639V301.851H607.655C612.601 301.851 616.355 302.307 618.916 303.219C621.512 304.131 622.81 305.464 622.81 307.219C622.81 309.008 621.512 310.358 618.916 311.271C616.355 312.183 612.601 312.639 607.655 312.639H580.554Z" fill="black"/>
<path d="M8.84073 230H31.6793V175.377H67.3579V230H90.1965V153.38H8.84073V230ZM107.878 230H131.979V214.529H167.5C180.235 214.529 189.602 211.757 195.601 206.214C201.635 200.671 204.652 193.269 204.652 184.007C204.652 174.184 201.583 166.624 195.443 161.326C189.339 156.029 180.147 153.38 167.869 153.38H107.878V230ZM131.979 194.848V174.219H161.817C168.623 174.219 173.447 175.044 176.288 176.693C179.165 178.341 180.603 180.92 180.603 184.428C180.603 187.831 179.165 190.427 176.288 192.216C173.447 193.971 168.623 194.848 161.817 194.848H131.979ZM210.144 189.954C210.144 203.811 215.985 214.213 227.668 221.159C239.35 228.106 253.839 231.579 271.135 231.579C288.43 231.579 302.954 228.106 314.707 221.159C326.494 214.213 332.388 203.811 332.388 189.954V192.427C332.388 179.061 326.494 168.957 314.707 162.116C302.954 155.24 288.43 151.802 271.135 151.802C253.839 151.802 239.35 155.24 227.668 162.116C215.985 168.957 210.144 179.061 210.144 192.427V189.954ZM235.403 190.269V192.322C235.403 185.691 238.683 180.674 245.244 177.271C251.804 173.868 260.47 172.22 271.24 172.325C281.94 172.43 290.605 174.132 297.236 177.429C303.866 180.727 307.182 185.709 307.182 192.374V190.427C307.182 197.444 303.849 202.759 297.183 206.372C290.553 209.95 281.905 211.687 271.24 211.582C260.505 211.477 251.839 209.687 245.244 206.214C238.683 202.706 235.403 197.391 235.403 190.269ZM413.418 245.05H434.888V207.635H336.64V245.05H358.111V230H413.418V245.05ZM352.269 153.38L350.164 189.69C349.708 196.426 348.972 201.566 347.954 205.109C346.972 208.652 345.148 212.266 342.481 215.95H364.373C366.092 213.283 367.477 210.266 368.53 206.898C369.617 203.53 370.354 198.233 370.74 191.006L371.529 175.745H401.156V229.79H423.995V153.38H352.269ZM439.39 230H467.912L494.961 183.481C495.768 182.078 496.522 180.762 497.224 179.534C497.925 178.271 498.504 177.289 498.96 176.587H499.223C499.714 177.254 500.311 178.201 501.012 179.429C501.749 180.622 502.521 181.92 503.328 183.323L530.376 230H558.688L512.432 153.117H485.489L439.39 230ZM461.861 217.107H535.796L527.535 198.215H470.386L461.861 217.107ZM561.445 230H584.284V201.846H608.964V178.955H584.284V153.38H561.445V230ZM595.703 191.532C595.703 204.899 600.474 214.862 610.016 221.422C619.559 227.983 631.241 231.263 645.064 231.263C658.991 231.263 670.796 227.983 680.479 221.422C690.162 214.862 695.003 204.899 695.003 191.532V190.848C695.003 178.008 690.162 168.343 680.479 161.853C670.796 155.363 658.991 152.117 645.064 152.117C631.241 152.117 619.559 155.363 610.016 161.853C600.474 168.343 595.703 178.008 595.703 190.848V191.532ZM619.278 191.48V191.006C619.278 184.761 621.664 180.095 626.435 177.008C631.241 173.886 637.486 172.377 645.169 172.483C652.782 172.588 659.009 174.149 663.85 177.166C668.692 180.148 671.112 184.779 671.112 191.059V191.638C671.112 198.268 668.674 203.232 663.798 206.53C658.956 209.793 652.747 211.371 645.169 211.266C637.556 211.161 631.329 209.53 626.488 206.372C621.681 203.18 619.278 198.215 619.278 191.48ZM706.054 153.38V230H812.196V245.05H833.666V208.003H822.825V153.38H799.987V208.003H775.833V153.38H752.994V208.003H728.893V153.38H706.054ZM926.757 230V153.38H900.708L869.081 190.901C868.239 191.883 867.661 192.567 867.345 192.953C867.029 193.304 866.731 193.83 866.45 194.532H866.187C866.187 193.655 866.187 192.953 866.187 192.427C866.187 191.901 866.187 191.199 866.187 190.322V153.38H843.401V230H869.397L901.024 191.69C901.936 190.813 902.55 190.076 902.866 189.48C903.216 188.884 903.532 188.322 903.813 187.796H904.023C904.023 188.322 904.006 188.831 903.971 189.322C903.936 189.813 903.918 190.638 903.918 191.795V230H926.757ZM932.019 230H961.593L994.641 197.479L999.64 196.953L1043.69 153.38H1014.58L982.432 185.165L977.328 185.638L932.019 230ZM935.071 153.38L978.906 196.9L979.117 197.426L1012.85 230H1043.26L996.798 184.744L996.535 184.218L965.224 153.38H935.071Z" fill="#E33A30"/>
<path d="M1054 141.54L1065.95 143.886L1055.77 153.074L1070.27 165L1078.34 154.003L1082.47 165L1101.25 153.074L1094.17 143.886L1107 141.491L1104.1 122.087L1091.76 127.463L1095.4 115H1074.9L1074.31 127.463L1063.83 122.087L1054 141.54Z" fill="#E33A30"/>
</svg>
