<svg width="233" height="233" viewBox="0 0 233 233" fill="none" xmlns="http://www.w3.org/2000/svg">
<path d="M116.5 3.79594e-07L122.805 64.5729L144.38 3.38528L135.049 67.5907L170.64 13.3444L146.215 73.4509L193.754 29.2985L155.653 81.813L212.378 50.3205L162.817 92.191L225.429 75.1885L167.289 103.982L232.151 102.457L168.809 116.5L232.151 130.543L167.289 129.018L225.429 157.811L162.817 140.809L212.378 182.68L155.653 151.187L193.754 203.702L146.215 159.549L170.64 219.656L135.049 165.409L144.38 229.615L122.805 168.427L116.5 233L110.195 168.427L88.6197 229.615L97.9511 165.409L62.3597 219.656L86.7854 159.549L39.2462 203.702L77.3465 151.187L20.6224 182.68L70.1831 140.809L7.57061 157.811L65.7115 129.018L0.849418 130.543L64.1915 116.5L0.849418 102.457L65.7115 103.982L7.57061 75.1885L70.1831 92.191L20.6224 50.3205L77.3465 81.813L39.2462 29.2985L86.7854 73.4509L62.3597 13.3444L97.9511 67.5907L88.6197 3.38528L110.195 64.5729L116.5 3.79594e-07Z" fill="#E33A30"/>
</svg>
