<svg width="1070" height="260" viewBox="0 0 1070 260" fill="none" xmlns="http://www.w3.org/2000/svg">
<path d="M699.425 182.715C699.4 185.089 697.997 187.563 694.558 190.082C691.12 192.601 685.922 194.947 679.012 197.044C665.216 201.231 645.15 204.269 620.21 206.009C570.37 209.487 501.501 207.758 425.433 199.978C349.367 192.197 280.604 179.848 230.933 166.19C206.083 159.356 186.099 152.219 172.387 145.204C165.523 141.692 160.331 138.262 156.892 134.987C153.422 131.683 152 128.795 152.026 126.348C152.051 123.974 153.454 121.501 156.892 118.981C160.33 116.462 165.528 114.116 172.438 112.019C186.234 107.832 206.301 104.795 231.24 103.054C281.08 99.5765 349.95 101.305 426.017 109.086C502.083 116.866 570.846 129.215 620.518 142.874C645.368 149.707 665.351 156.844 679.064 163.859C685.928 167.371 691.12 170.801 694.558 174.076C698.029 177.38 699.45 180.268 699.425 182.715Z" stroke="#E33A30" stroke-width="4.09172"/>
<path d="M4.98834 11.2817C6.09772 10.5474 7.4024 10.1802 8.9024 10.1802C10.4024 10.1802 11.7071 10.5474 12.8165 11.2817C13.9337 12.0161 14.7735 13.0161 15.336 14.2817C15.9063 15.5474 16.1915 16.9966 16.1915 18.6294C16.1915 20.2622 15.9063 21.7114 15.336 22.9771C14.7735 24.2427 13.9337 25.2427 12.8165 25.9771C11.7071 26.7114 10.4024 27.0786 8.9024 27.0786C7.4024 27.0786 6.09772 26.7114 4.98834 25.9771C3.87897 25.2427 3.03912 24.2427 2.46881 22.9771C1.90631 21.7114 1.62506 20.2622 1.62506 18.6294C1.62506 16.9966 1.90631 15.5474 2.46881 14.2817C3.03912 13.0161 3.87897 12.0161 4.98834 11.2817ZM12.7227 14.0591C11.754 12.9888 10.4805 12.4536 8.9024 12.4536C7.32428 12.4536 6.05084 12.9888 5.08209 14.0591C4.12115 15.1294 3.64069 16.6528 3.64069 18.6294C3.64069 20.606 4.12115 22.1294 5.08209 23.1997C6.05084 24.2622 7.32428 24.7935 8.9024 24.7935C10.4805 24.7935 11.754 24.2622 12.7227 23.1997C13.6915 22.1294 14.1758 20.606 14.1758 18.6294C14.1758 16.6528 13.6915 15.1294 12.7227 14.0591ZM23.7149 14.9966C25.0196 14.9966 26.1172 15.3521 27.0079 16.063C27.8985 16.7661 28.4805 17.731 28.754 18.9575H26.9962C26.8243 18.395 26.4532 17.9419 25.8829 17.5981C25.3204 17.2466 24.5743 17.0708 23.6446 17.0708C22.5508 17.0708 21.6915 17.4341 21.0665 18.1606C20.4493 18.8794 20.1407 19.8169 20.1407 20.9731C20.1407 22.1372 20.4532 23.0864 21.0782 23.8208C21.7032 24.5474 22.5587 24.9106 23.6446 24.9106C24.5743 24.9106 25.3204 24.7349 25.8829 24.3833C26.4532 24.0317 26.8243 23.5747 26.9962 23.0122H28.754C28.4805 24.2388 27.8985 25.2075 27.0079 25.9185C26.1172 26.6216 25.0196 26.9731 23.7149 26.9731C22.8868 26.9731 22.1251 26.8169 21.4297 26.5044C20.7344 26.1919 20.1524 25.7661 19.6837 25.2271C19.2149 24.688 18.8477 24.0552 18.5821 23.3286C18.3243 22.5942 18.1954 21.8091 18.1954 20.9731C18.1954 19.2622 18.6993 17.8403 19.7071 16.7075C20.7227 15.5669 22.0587 14.9966 23.7149 14.9966ZM30.0665 15.1958H39.4297V17.1646H35.7032V26.7856H33.793V17.1646H30.0665V15.1958ZM49.4962 26.8325C48.9337 26.8325 48.4766 26.6724 48.1251 26.3521C47.7813 26.0317 47.5821 25.5591 47.5274 24.9341C46.7305 26.231 45.6055 26.8794 44.1524 26.8794C43.1133 26.8794 42.2891 26.6099 41.6797 26.0708C41.0704 25.5317 40.7657 24.7544 40.7657 23.7388C40.7657 22.8091 41.0157 22.0825 41.5157 21.5591C42.0235 21.0356 42.8438 20.5552 43.9766 20.1177L47.4102 18.77C47.2852 17.5825 46.5079 16.9888 45.0782 16.9888C44.4063 16.9888 43.8594 17.1255 43.4376 17.3989C43.0157 17.6724 42.7579 18.0825 42.6641 18.6294H40.8594C41.0235 17.4341 41.5001 16.5317 42.2891 15.9224C43.0782 15.3052 44.0079 14.9966 45.0782 14.9966C46.4141 14.9966 47.4532 15.3481 48.1954 16.0513C48.9454 16.7544 49.3165 17.8052 49.3087 19.2036L49.2618 23.645C49.2618 24.106 49.3204 24.4263 49.4376 24.606C49.5626 24.7778 49.7735 24.8638 50.0704 24.8638H50.5274V26.7856C50.1055 26.8169 49.7618 26.8325 49.4962 26.8325ZM42.6876 23.3989C42.6876 24.4224 43.3672 24.9341 44.7266 24.9341C45.2969 24.9341 45.8126 24.8521 46.2735 24.688C46.7344 24.5161 47.0977 24.2856 47.3633 23.9966L47.4102 20.2349L45.2774 21.1021C44.3087 21.4927 43.6329 21.8481 43.2501 22.1685C42.8751 22.481 42.6876 22.8911 42.6876 23.3989ZM56.9844 26.7856H52.4962V15.1958H56.7969C58.0001 15.1958 58.9493 15.4653 59.6446 16.0044C60.3399 16.5356 60.6876 17.2817 60.6876 18.2427C60.6876 18.8442 60.5352 19.3638 60.2305 19.8013C59.9258 20.231 59.5235 20.5122 59.0235 20.645C59.6954 20.7544 60.2305 21.0435 60.629 21.5122C61.0352 21.981 61.2383 22.5942 61.2383 23.3521C61.2383 24.4771 60.8751 25.3325 60.1485 25.9185C59.4297 26.4966 58.3751 26.7856 56.9844 26.7856ZM54.3712 17.0708V20.1411H56.7969C58.1251 20.1411 58.7891 19.6216 58.7891 18.5825C58.7891 18.0669 58.6368 17.688 58.3321 17.4458C58.0274 17.1958 57.5469 17.0708 56.8907 17.0708H54.3712ZM54.3712 21.4536V24.9106H56.7969C57.6954 24.9106 58.3399 24.7739 58.7305 24.5005C59.1212 24.2271 59.3165 23.7896 59.3165 23.188C59.3165 22.5786 59.1172 22.1372 58.7188 21.8638C58.3204 21.5903 57.6954 21.4536 56.8438 21.4536H54.3712ZM65.5508 15.1958V19.2505H67.7305C70.6133 19.2505 72.0547 20.4653 72.0547 22.895C72.0547 24.1685 71.6563 25.1372 70.8594 25.8013C70.0704 26.4575 69.0469 26.7856 67.7891 26.7856H63.629V15.1958H65.5508ZM67.6837 20.9028H65.5508V24.8403H67.6368C69.3165 24.8403 70.1563 24.1841 70.1563 22.8716C70.1563 22.2153 69.9571 21.7231 69.5587 21.395C69.1602 21.0669 68.5352 20.9028 67.6837 20.9028ZM72.7462 15.1958H82.1094V17.1646H78.3829V26.7856H76.4727V17.1646H72.7462V15.1958ZM93.8165 23.2583C93.7071 23.6646 93.5626 24.0435 93.3829 24.395C93.211 24.7388 92.9805 25.0747 92.6915 25.4028C92.4024 25.7231 92.0743 25.9966 91.7071 26.2231C91.3477 26.4497 90.9102 26.6333 90.3946 26.7739C89.879 26.9067 89.3165 26.9731 88.7071 26.9731C87.6524 26.9731 86.7071 26.7075 85.8712 26.1763C85.043 25.6372 84.4024 24.9146 83.9493 24.0083C83.504 23.0942 83.2813 22.0825 83.2813 20.9731C83.2813 19.2778 83.7852 17.8599 84.793 16.7192C85.8087 15.5708 87.1133 14.9966 88.7071 14.9966C90.3321 14.9966 91.6329 15.5708 92.6094 16.7192C93.586 17.8677 94.0743 19.3442 94.0743 21.1489V21.4302H85.2266C85.2969 22.5161 85.6446 23.3833 86.2696 24.0317C86.8946 24.6802 87.7071 25.0044 88.7071 25.0044C90.3712 25.0044 91.4883 24.4224 92.0587 23.2583H93.8165ZM88.7071 16.9653C87.7462 16.9653 86.9688 17.2388 86.3751 17.7856C85.7891 18.3247 85.4219 19.0786 85.2735 20.0474H92.0821C91.9571 19.1255 91.6133 18.3833 91.0508 17.8208C90.4962 17.2505 89.7149 16.9653 88.7071 16.9653ZM106.145 25.0044C106.941 25.0044 107.578 24.8521 108.055 24.5474C108.539 24.2349 108.781 23.7817 108.781 23.188C108.781 22.5942 108.574 22.1606 108.16 21.8872C107.746 21.6138 107.129 21.4771 106.309 21.4771H104.574V20.1646H106.262C107.715 20.1646 108.441 19.6294 108.441 18.5591C108.441 17.4966 107.699 16.9653 106.215 16.9653C105.465 16.9653 104.852 17.1294 104.375 17.4575C103.906 17.7778 103.621 18.2388 103.52 18.8403H101.82C101.977 17.6372 102.449 16.6958 103.238 16.0161C104.027 15.3364 105.035 14.9966 106.262 14.9966C107.481 14.9966 108.449 15.2896 109.168 15.8755C109.887 16.4536 110.246 17.2583 110.246 18.2896C110.246 18.8755 110.074 19.3872 109.731 19.8247C109.395 20.2622 108.965 20.5513 108.441 20.6919C109.113 20.8091 109.641 21.1021 110.023 21.5708C110.406 22.0317 110.598 22.6255 110.598 23.3521C110.598 24.5005 110.184 25.3911 109.356 26.0239C108.527 26.6567 107.473 26.9731 106.191 26.9731C104.926 26.9731 103.898 26.6489 103.109 26.0005C102.32 25.3521 101.867 24.3911 101.75 23.1177H103.449C103.613 24.3755 104.512 25.0044 106.145 25.0044ZM121.098 26.8325C120.535 26.8325 120.078 26.6724 119.727 26.3521C119.383 26.0317 119.184 25.5591 119.129 24.9341C118.332 26.231 117.207 26.8794 115.754 26.8794C114.715 26.8794 113.891 26.6099 113.281 26.0708C112.672 25.5317 112.367 24.7544 112.367 23.7388C112.367 22.8091 112.617 22.0825 113.117 21.5591C113.625 21.0356 114.445 20.5552 115.578 20.1177L119.012 18.77C118.887 17.5825 118.109 16.9888 116.68 16.9888C116.008 16.9888 115.461 17.1255 115.039 17.3989C114.617 17.6724 114.359 18.0825 114.266 18.6294H112.461C112.625 17.4341 113.102 16.5317 113.891 15.9224C114.68 15.3052 115.609 14.9966 116.68 14.9966C118.016 14.9966 119.055 15.3481 119.797 16.0513C120.547 16.7544 120.918 17.8052 120.91 19.2036L120.863 23.645C120.863 24.106 120.922 24.4263 121.039 24.606C121.164 24.7778 121.375 24.8638 121.672 24.8638H122.129V26.7856C121.707 26.8169 121.363 26.8325 121.098 26.8325ZM114.289 23.3989C114.289 24.4224 114.969 24.9341 116.328 24.9341C116.898 24.9341 117.414 24.8521 117.875 24.688C118.336 24.5161 118.699 24.2856 118.965 23.9966L119.012 20.2349L116.879 21.1021C115.91 21.4927 115.234 21.8481 114.852 22.1685C114.477 22.481 114.289 22.8911 114.289 23.3989ZM123.043 26.7856L127.051 22.063C125.965 22.0396 125.086 21.7505 124.414 21.1958C123.742 20.6411 123.406 19.7935 123.406 18.6528C123.406 17.5669 123.797 16.7192 124.578 16.1099C125.367 15.5005 126.375 15.1958 127.602 15.1958H131.926V26.7856H130.004V22.063H129.336L125.469 26.7856H123.043ZM127.754 20.7388H130.004V17.1411H127.801C126.996 17.1411 126.387 17.2778 125.973 17.5513C125.559 17.8169 125.352 18.27 125.352 18.9106C125.352 19.5122 125.57 19.9692 126.008 20.2817C126.445 20.5864 127.027 20.7388 127.754 20.7388ZM139.625 26.7856H135.137V15.1958H139.438C140.641 15.1958 141.59 15.4653 142.285 16.0044C142.981 16.5356 143.328 17.2817 143.328 18.2427C143.328 18.8442 143.176 19.3638 142.871 19.8013C142.566 20.231 142.164 20.5122 141.664 20.645C142.336 20.7544 142.871 21.0435 143.27 21.5122C143.676 21.981 143.879 22.5942 143.879 23.3521C143.879 24.4771 143.516 25.3325 142.789 25.9185C142.07 26.4966 141.016 26.7856 139.625 26.7856ZM137.012 17.0708V20.1411H139.438C140.766 20.1411 141.43 19.6216 141.43 18.5825C141.43 18.0669 141.277 17.688 140.973 17.4458C140.668 17.1958 140.188 17.0708 139.531 17.0708H137.012ZM137.012 21.4536V24.9106H139.438C140.336 24.9106 140.981 24.7739 141.371 24.5005C141.762 24.2271 141.957 23.7896 141.957 23.188C141.957 22.5786 141.758 22.1372 141.359 21.8638C140.961 21.5903 140.336 21.4536 139.484 21.4536H137.012ZM152.68 26.7856L148.191 21.0552V26.7856H146.27V15.1958H148.191V20.645L152.82 15.1958H155.035L150.254 20.645L155.082 26.7856H152.68ZM159.629 28.0278L160.063 26.7856H159.606L155.598 15.1958H157.66L160.824 24.5591L164.047 15.1958H165.863L161.164 28.6372C160.773 29.7466 160.32 30.5356 159.805 31.0044C159.289 31.4731 158.652 31.7075 157.895 31.7075C157.449 31.7075 157.004 31.6411 156.559 31.5083V29.5513C156.981 29.645 157.356 29.6919 157.684 29.6919C158.16 29.6919 158.551 29.563 158.856 29.3052C159.168 29.0474 159.426 28.6216 159.629 28.0278Z" fill="black"/>
<path d="M2.08453 81.1216C2.08453 88.6694 5.09023 94.3159 11.1016 98.061C17.1322 101.787 24.6705 103.65 33.7164 103.65C42.7623 103.65 50.3197 101.787 56.3887 98.061C62.4769 94.3159 65.5211 88.6694 65.5211 81.1216V82.1011C65.5211 74.7645 62.4769 69.2428 56.3887 65.5361C50.3197 61.8294 42.7623 59.9761 33.7164 59.9761C24.6513 59.9761 17.113 61.8294 11.1016 65.5361C5.09023 69.2428 2.08453 74.7645 2.08453 82.1011V81.1216ZM15.3077 81.5249V81.813C15.3077 78.1063 16.9882 75.3695 20.3492 73.6025C23.7294 71.8356 28.2043 70.9714 33.774 71.0098C39.3052 71.0482 43.7802 71.9316 47.1988 73.6602C50.6174 75.3887 52.3267 78.1063 52.3267 81.813V81.5825C52.3267 85.4237 50.6078 88.2661 47.17 90.1099C43.7514 91.9536 39.286 92.8563 33.774 92.8179C28.2235 92.7795 23.7582 91.8576 20.378 90.0522C16.9978 88.2469 15.3077 85.4045 15.3077 81.5249ZM66.6365 81.3809C66.6365 88.7367 69.5078 94.2871 75.2503 98.0322C81.012 101.777 88.6367 103.65 98.1243 103.65C107.478 103.65 114.584 102.238 119.443 99.415C124.321 96.5726 126.981 92.2705 127.423 86.5088L127.509 85.2412H114.747L114.603 86.3936C114.372 87.8916 113.018 89.3416 110.541 90.7437C108.063 92.1457 103.953 92.8467 98.2107 92.8467C92.6795 92.8467 88.2718 91.992 84.9876 90.2827C81.7226 88.5734 80.0901 85.7118 80.0901 81.6978V81.813C80.0901 79.009 81.7034 76.493 84.93 74.2651C88.1565 72.0373 92.5931 70.9233 98.2396 70.9233C103.252 70.9233 106.978 71.6147 109.417 72.9976C111.856 74.3804 113.547 75.8592 114.488 77.4341L114.689 78.5288H127.509L127.336 77.29C125.819 71.3363 122.842 66.967 118.406 64.1821C113.988 61.3781 107.209 59.9761 98.0667 59.9761C88.8095 59.9761 81.2521 61.8294 75.3943 65.5361C69.5558 69.2236 66.6365 74.7741 66.6365 82.1875V81.3809ZM127.242 72.5942H147.264V102.786H160.084V72.5942H180.077V60.8403H127.242V72.5942ZM178.772 102.786H193.407L207.638 77.3765C208.099 76.5506 208.532 75.7056 208.935 74.8413C209.357 73.9771 209.703 73.2952 209.972 72.7959H210.145C210.433 73.276 210.788 73.9386 211.211 74.7837C211.633 75.6095 212.075 76.445 212.536 77.29L226.739 102.786H241.546L217.145 60.6675H203.058L178.772 102.786ZM190.641 95.7275H229.303L225.01 85.4717H195.049L190.641 95.7275ZM243.094 102.786H272.507C278.423 102.786 283.243 101.758 286.969 99.7031C290.714 97.6481 292.587 94.652 292.587 90.7148C292.587 87.834 291.684 85.5677 289.879 83.916C288.093 82.2643 285.711 81.2272 282.734 80.8047V80.6895C284.962 80.0749 286.777 78.9993 288.179 77.4629C289.6 75.9072 290.311 73.9482 290.311 71.5859C290.311 68.1097 288.707 65.4497 285.5 63.606C282.293 61.7622 277.664 60.8403 271.614 60.8403H243.094V102.786ZM255.51 92.7603V85.8174H270.001C273.055 85.8174 275.436 86.0767 277.146 86.5952C278.874 87.0946 279.738 87.9204 279.738 89.0728C279.738 90.4556 278.874 91.4159 277.146 91.9536C275.436 92.4914 273.055 92.7603 270.001 92.7603H255.51ZM255.51 77.1748V71.1826H269.223C272.2 71.1826 274.418 71.4323 275.878 71.9316C277.357 72.431 278.096 73.1896 278.096 74.2075C278.096 75.187 277.357 75.9264 275.878 76.4258C274.418 76.9251 272.2 77.1748 269.223 77.1748H255.51ZM298.657 60.8403H310.671V73.3145H323.663C329.348 73.2952 333.468 74.6396 336.022 77.3477C338.577 80.0557 339.854 83.6183 339.854 88.0356C339.854 92.7218 338.548 96.3517 335.936 98.9253C333.343 101.499 329.31 102.786 323.836 102.786H298.657V60.8403ZM310.671 84.4058V91.8384H321.503C323.731 91.8384 325.344 91.5887 326.343 91.0894C327.36 90.5708 327.869 89.6009 327.869 88.1797C327.869 86.9505 327.36 86.019 326.343 85.3853C325.344 84.7323 323.731 84.4058 321.503 84.4058H310.671ZM349.9 72.5942H369.922V102.786H382.742V72.5942H402.735V60.8403H349.9V72.5942ZM407.423 102.786H452.767V91.4927H419.551V86.8257H449.022V76.2529H419.551V72.3926H452.278V60.8403H407.423V102.786ZM506.825 92.7603C503.041 92.741 500.218 92.4434 498.355 91.8672C496.511 91.2718 495.522 90.0618 495.388 88.2373L495.33 87.4883H483.692L483.72 88.3525C483.97 93.7301 486.064 97.6097 490.001 99.9912C493.938 102.354 499.565 103.535 506.883 103.535C513.912 103.535 519.337 102.334 523.159 99.9336C526.981 97.5329 528.892 94.3831 528.892 90.4844C528.892 87.6611 528.028 85.4525 526.3 83.8584C524.571 82.2643 522.286 81.256 519.443 80.8335V80.7183C521.882 80.1229 523.851 79.0282 525.349 77.4341C526.847 75.84 527.596 73.9098 527.596 71.6436C527.615 68.0905 525.906 65.2769 522.468 63.2026C519.03 61.1284 513.845 60.0913 506.911 60.0913C499.69 60.0913 494.149 61.3685 490.289 63.9229C486.448 66.4772 484.383 70.2319 484.095 75.187L484.009 76.2817H495.647L495.762 75.3599C495.897 74.0347 496.838 72.9591 498.586 72.1333C500.333 71.3075 503.07 70.8945 506.796 70.8945C509.811 70.8945 511.982 71.1346 513.307 71.6147C514.651 72.0949 515.323 72.7287 515.323 73.5161C515.323 74.6108 514.728 75.3599 513.537 75.7632C512.347 76.1473 510.551 76.3394 508.15 76.3394H500.113V86.8545H508.121C510.964 86.8545 513.067 87.0273 514.43 87.373C515.794 87.6995 516.466 88.4198 516.447 89.5337C516.447 91.0317 515.679 91.944 514.142 92.2705C512.625 92.597 510.186 92.7603 506.825 92.7603ZM527.985 102.786H542.62L556.852 77.3765C557.313 76.5506 557.745 75.7056 558.148 74.8413C558.571 73.9771 558.916 73.2952 559.185 72.7959H559.358C559.646 73.276 560.001 73.9386 560.424 74.7837C560.846 75.6095 561.288 76.445 561.749 77.29L575.952 102.786H590.759L566.358 60.6675H552.271L527.985 102.786ZM539.855 95.7275H578.516L574.223 85.4717H544.262L539.855 95.7275ZM632.725 102.786H620.741V90.2251H605.559L603.802 89.5049C599.634 89.14 596.398 87.6803 594.093 85.126C591.788 82.5524 590.636 79.249 590.636 75.2158C590.636 70.8177 592.086 67.3223 594.986 64.7295C597.886 62.1367 601.737 60.8403 606.538 60.8403H632.725V102.786ZM620.741 79.8828V71.5283H609.275C607.009 71.5283 605.357 71.8836 604.32 72.5942C603.283 73.3049 602.764 74.342 602.764 75.7056C602.764 77.0692 603.273 78.1063 604.291 78.8169C605.328 79.5275 606.99 79.8828 609.275 79.8828H620.741ZM601.929 102.786H589.167L601.583 84.2041H614.057L601.929 102.786ZM639.138 102.786H668.552C674.467 102.786 679.288 101.758 683.014 99.7031C686.759 97.6481 688.631 94.652 688.631 90.7148C688.631 87.834 687.729 85.5677 685.923 83.916C684.137 82.2643 681.756 81.2272 678.779 80.8047V80.6895C681.007 80.0749 682.822 78.9993 684.224 77.4629C685.645 75.9072 686.355 73.9482 686.355 71.5859C686.355 68.1097 684.752 65.4497 681.544 63.606C678.337 61.7622 673.708 60.8403 667.659 60.8403H639.138V102.786ZM651.555 92.7603V85.8174H666.045C669.099 85.8174 671.481 86.0767 673.19 86.5952C674.918 87.0946 675.783 87.9204 675.783 89.0728C675.783 90.4556 674.918 91.4159 673.19 91.9536C671.481 92.4914 669.099 92.7603 666.045 92.7603H651.555ZM651.555 77.1748V71.1826H665.268C668.244 71.1826 670.463 71.4323 671.922 71.9316C673.401 72.431 674.141 73.1896 674.141 74.2075C674.141 75.187 673.401 75.9264 671.922 76.4258C670.463 76.9251 668.244 77.1748 665.268 77.1748H651.555ZM726.823 102.786H742.265L716.74 76.7715L707.551 83.1094L726.823 102.786ZM700.752 75.4463V87.085H714.004L741.804 60.8403H725.066L709.913 75.4463H700.752ZM694.702 102.786H706.715V60.8403H694.702V102.786ZM756.604 90.4556V102.901C757.122 103.112 757.785 103.275 758.591 103.391C759.398 103.525 760.368 103.592 761.501 103.592C765.899 103.592 769.347 102.478 771.843 100.25C774.359 98.0226 776.789 95.113 779.132 91.5215L798.117 60.8403H784.317L773.773 78.7305C773.524 79.0378 773.322 79.3258 773.168 79.5947C773.034 79.8444 772.909 80.1229 772.794 80.4302H772.592C772.439 80.1421 772.295 79.8636 772.16 79.5947C772.045 79.3066 771.882 79.0186 771.67 78.7305L760.493 60.8403H747.385L765.966 88.8135L766.571 86.9697C765.611 88.3525 764.776 89.3512 764.065 89.9658C763.374 90.5804 762.336 90.8877 760.954 90.8877C759.859 90.8877 759.004 90.8589 758.39 90.8013C757.794 90.7244 757.199 90.6092 756.604 90.4556ZM5.16705 173.786H17.8428V158.229H45.6143V173.786H58.2901V131.84H45.6143V146.072H17.8428V131.84H5.16705V173.786ZM60.4427 173.786H75.0774L89.3089 148.376C89.7698 147.551 90.202 146.706 90.6053 145.841C91.0278 144.977 91.3735 144.295 91.6424 143.796H91.8152C92.1033 144.276 92.4586 144.939 92.8812 145.784C93.3037 146.61 93.7454 147.445 94.2064 148.29L108.409 173.786H123.217L98.8157 131.667H84.7283L60.4427 173.786ZM72.3118 166.728H110.973L106.68 156.472H76.7195L72.3118 166.728ZM151.519 173.786H164.195V164.538H181.624C188.596 164.576 193.791 163.136 197.21 160.217C200.628 157.298 202.338 153.293 202.338 148.204C202.338 142.903 200.609 138.85 197.152 136.046C193.695 133.242 188.577 131.84 181.797 131.84H151.519V173.786ZM164.195 153.937V142.932H179.089C182.911 142.932 185.629 143.364 187.242 144.228C188.855 145.092 189.662 146.485 189.662 148.405C189.662 150.268 188.855 151.661 187.242 152.583C185.629 153.485 182.911 153.937 179.089 153.937H164.195ZM201.84 173.786H216.475L230.706 148.376C231.167 147.551 231.599 146.706 232.002 145.841C232.425 144.977 232.771 144.295 233.04 143.796H233.212C233.501 144.276 233.856 144.939 234.278 145.784C234.701 146.61 235.143 147.445 235.604 148.29L249.806 173.786H264.614L240.213 131.667H226.126L201.84 173.786ZM213.709 166.728H252.37L248.078 156.472H218.117L213.709 166.728ZM285.722 163.76C281.939 163.741 279.116 163.443 277.253 162.867C275.409 162.272 274.42 161.062 274.285 159.237L274.228 158.488H262.589L262.618 159.353C262.868 164.73 264.961 168.61 268.898 170.991C272.835 173.354 278.463 174.535 285.78 174.535C292.809 174.535 298.235 173.334 302.057 170.934C305.879 168.533 307.79 165.383 307.79 161.484C307.79 158.661 306.926 156.452 305.197 154.858C303.469 153.264 301.183 152.256 298.341 151.833V151.718C300.78 151.123 302.748 150.028 304.246 148.434C305.744 146.84 306.493 144.91 306.493 142.644C306.513 139.09 304.803 136.277 301.365 134.203C297.928 132.128 292.742 131.091 285.809 131.091C278.587 131.091 273.047 132.368 269.186 134.923C265.345 137.477 263.281 141.232 262.992 146.187L262.906 147.282H274.545L274.66 146.36C274.794 145.035 275.735 143.959 277.483 143.133C279.231 142.307 281.968 141.895 285.694 141.895C288.709 141.895 290.879 142.135 292.204 142.615C293.549 143.095 294.221 143.729 294.221 144.516C294.221 145.611 293.626 146.36 292.435 146.763C291.244 147.147 289.448 147.339 287.048 147.339H279.01V157.854H287.019C289.861 157.854 291.964 158.027 293.328 158.373C294.691 158.7 295.364 159.42 295.344 160.534C295.344 162.032 294.576 162.944 293.04 163.271C291.523 163.597 289.083 163.76 285.722 163.76ZM314.94 173.786H327.616V164.538H345.045C352.017 164.576 357.212 163.136 360.631 160.217C364.049 157.298 365.758 153.293 365.758 148.204C365.758 142.903 364.03 138.85 360.573 136.046C357.116 133.242 351.998 131.84 345.218 131.84H314.94V173.786ZM327.616 153.937V142.932H342.51C346.332 142.932 349.049 143.364 350.663 144.228C352.276 145.092 353.083 146.485 353.083 148.405C353.083 150.268 352.276 151.661 350.663 152.583C349.049 153.485 346.332 153.937 342.51 153.937H327.616ZM365.261 173.786H379.895L394.127 148.376C394.588 147.551 395.02 146.706 395.423 145.841C395.846 144.977 396.191 144.295 396.46 143.796H396.633C396.921 144.276 397.277 144.939 397.699 145.784C398.122 146.61 398.563 147.445 399.024 148.29L413.227 173.786H428.035L403.634 131.667H389.546L365.261 173.786ZM377.13 166.728H415.791L411.498 156.472H381.538L377.13 166.728ZM429.582 173.786H455.02C460.283 173.786 464.229 172.633 466.861 170.329C469.492 168.005 470.807 164.634 470.807 160.217C470.807 155.953 469.501 152.669 466.889 150.364C464.297 148.04 460.359 146.878 455.078 146.878H441.595V143.22H467.811V131.84H429.582V173.786ZM441.595 156.904H452.658C454.847 156.904 456.441 157.173 457.44 157.71C458.458 158.229 458.967 159.074 458.967 160.246C458.967 161.513 458.468 162.377 457.469 162.838C456.47 163.28 454.867 163.501 452.658 163.501H441.595V156.904ZM476.078 152.122C476.078 159.669 479.084 165.316 485.095 169.061C491.126 172.787 498.664 174.65 507.71 174.65C516.756 174.65 524.313 172.787 530.382 169.061C536.471 165.316 539.515 159.669 539.515 152.122V153.101C539.515 145.764 536.471 140.243 530.382 136.536C524.313 132.829 516.756 130.976 507.71 130.976C498.645 130.976 491.107 132.829 485.095 136.536C479.084 140.243 476.078 145.764 476.078 153.101V152.122ZM489.301 152.525V152.813C489.301 149.106 490.982 146.369 494.343 144.603C497.723 142.836 502.198 141.971 507.768 142.01C513.299 142.048 517.774 142.932 521.192 144.66C524.611 146.389 526.32 149.106 526.32 152.813V152.583C526.32 156.424 524.601 159.266 521.164 161.11C517.745 162.954 513.28 163.856 507.768 163.818C502.217 163.779 497.752 162.858 494.372 161.052C490.991 159.247 489.301 156.404 489.301 152.525ZM539.622 143.594H559.644V173.786H572.464V143.594H592.457V131.84H539.622V143.594ZM629.266 173.786H644.707L619.183 147.771L609.993 154.109L629.266 173.786ZM603.194 146.446V158.085H616.446L644.247 131.84H627.509L612.355 146.446H603.194ZM597.144 173.786H609.158V131.84H597.144V173.786ZM659.046 161.456V173.901C659.565 174.112 660.227 174.275 661.034 174.391C661.841 174.525 662.81 174.592 663.944 174.592C668.342 174.592 671.789 173.478 674.286 171.25C676.802 169.023 679.231 166.113 681.574 162.521L700.559 131.84H686.76L676.216 149.73C675.966 150.038 675.765 150.326 675.611 150.595C675.477 150.844 675.352 151.123 675.237 151.43H675.035C674.881 151.142 674.737 150.864 674.603 150.595C674.487 150.307 674.324 150.019 674.113 149.73L662.935 131.84H649.827L668.409 159.813L669.014 157.97C668.054 159.353 667.218 160.351 666.508 160.966C665.816 161.58 664.779 161.888 663.396 161.888C662.301 161.888 661.447 161.859 660.832 161.801C660.237 161.724 659.641 161.609 659.046 161.456ZM735.862 152.381C735.862 159.737 738.734 165.287 744.476 169.032C750.238 172.777 757.863 174.65 767.35 174.65C776.703 174.65 783.81 173.238 788.669 170.415C793.547 167.573 796.207 163.271 796.649 157.509L796.735 156.241H783.973L783.829 157.394C783.598 158.892 782.244 160.342 779.767 161.744C777.289 163.146 773.179 163.847 767.437 163.847C761.905 163.847 757.498 162.992 754.214 161.283C750.949 159.573 749.316 156.712 749.316 152.698V152.813C749.316 150.009 750.929 147.493 754.156 145.265C757.383 143.037 761.819 141.923 767.466 141.923C772.478 141.923 776.204 142.615 778.643 143.998C781.082 145.38 782.772 146.859 783.714 148.434L783.915 149.529H796.735L796.562 148.29C795.045 142.336 792.068 137.967 787.632 135.182C783.214 132.378 776.435 130.976 767.293 130.976C758.036 130.976 750.478 132.829 744.62 136.536C738.782 140.224 735.862 145.774 735.862 153.188V152.381ZM794.566 173.786H809.201L823.432 148.376C823.893 147.551 824.326 146.706 824.729 145.841C825.151 144.977 825.497 144.295 825.766 143.796H825.939C826.227 144.276 826.582 144.939 827.005 145.784C827.427 146.61 827.869 147.445 828.33 148.29L842.533 173.786H857.34L832.939 131.667H818.852L794.566 173.786ZM806.435 166.728H845.097L840.804 156.472H810.843L806.435 166.728ZM903.138 173.786V131.84H889.771L872.601 152.525C872.121 153.082 871.775 153.543 871.564 153.908C871.372 154.253 871.189 154.638 871.016 155.06H870.757C870.757 154.542 870.757 154.061 870.757 153.62C870.776 153.178 870.786 152.688 870.786 152.15V131.84H858.888V173.786H872.255L889.425 152.784C889.924 152.246 890.27 151.776 890.462 151.373C890.673 150.95 890.875 150.528 891.067 150.105H891.326C891.307 150.508 891.288 150.931 891.269 151.373C891.249 151.795 891.24 152.323 891.24 152.957V173.786H903.138ZM881.099 122.103C879.716 122.103 878.564 121.7 877.642 120.893C876.74 120.086 876.048 118.896 875.568 117.321L867.934 120.605C869.24 123.755 871.026 125.935 873.292 127.145C875.558 128.354 878.161 128.959 881.099 128.959C884.019 128.959 886.621 128.354 888.906 127.145C891.211 125.915 892.949 123.726 894.121 120.576L886.688 117.321C886.266 118.857 885.565 120.038 884.585 120.864C883.625 121.69 882.463 122.103 881.099 122.103ZM910.151 143.594H930.173V173.786H942.993V143.594H962.986V131.84H910.151V143.594ZM961.682 173.786H976.316L990.548 148.376C991.009 147.551 991.441 146.706 991.844 145.841C992.267 144.977 992.612 144.295 992.881 143.796H993.054C993.342 144.276 993.697 144.939 994.12 145.784C994.543 146.61 994.984 147.445 995.445 148.29L1009.65 173.786H1024.46L1000.05 131.667H985.967L961.682 173.786ZM973.551 166.728H1012.21L1007.92 156.472H977.958L973.551 166.728Z" fill="black"/>
</svg>
