<svg width="686" height="189" viewBox="0 0 686 189" fill="none" xmlns="http://www.w3.org/2000/svg">
<path d="M9.91406 26.7856L3.73828 18.1021V26.7856H1.72266V10.4614H3.73828V17.7856L9.91406 10.4614H12.1641L6.04688 17.7388L12.5039 26.7856H9.91406ZM15.7852 15.7935C16.6523 15.2622 17.6367 14.9966 18.7383 14.9966C19.8398 14.9966 20.8203 15.2622 21.6797 15.7935C22.5469 16.3169 23.2109 17.0317 23.6719 17.938C24.1406 18.8442 24.375 19.856 24.375 20.9731C24.375 22.6841 23.8516 24.1138 22.8047 25.2622C21.7578 26.4028 20.4023 26.9731 18.7383 26.9731C17.0742 26.9731 15.7188 26.4028 14.6719 25.2622C13.625 24.1138 13.1016 22.6841 13.1016 20.9731C13.1016 19.856 13.332 18.8442 13.793 17.938C14.2617 17.0317 14.9258 16.3169 15.7852 15.7935ZM21.4102 18.1489C20.7383 17.4302 19.8477 17.0708 18.7383 17.0708C17.6289 17.0708 16.7344 17.4302 16.0547 18.1489C15.3828 18.8599 15.0469 19.8013 15.0469 20.9731C15.0469 22.145 15.3828 23.0942 16.0547 23.8208C16.7344 24.5474 17.6289 24.9106 18.7383 24.9106C19.8477 24.9106 20.7383 24.5474 21.4102 23.8208C22.0898 23.0942 22.4297 22.145 22.4297 20.9731C22.4297 19.8013 22.0898 18.8599 21.4102 18.1489ZM28.7227 26.7856H26.8477V15.1958H29.4609L32.9414 21.9575L36.4219 15.1958H38.918V26.7856H37.0078V17.8325L33.2578 24.9106H32.4609L28.7227 17.8325V26.7856ZM50.168 26.8325C49.6055 26.8325 49.1484 26.6724 48.7969 26.3521C48.4531 26.0317 48.2539 25.5591 48.1992 24.9341C47.4023 26.231 46.2773 26.8794 44.8242 26.8794C43.7852 26.8794 42.9609 26.6099 42.3516 26.0708C41.7422 25.5317 41.4375 24.7544 41.4375 23.7388C41.4375 22.8091 41.6875 22.0825 42.1875 21.5591C42.6953 21.0356 43.5156 20.5552 44.6484 20.1177L48.082 18.77C47.957 17.5825 47.1797 16.9888 45.75 16.9888C45.0781 16.9888 44.5312 17.1255 44.1094 17.3989C43.6875 17.6724 43.4297 18.0825 43.3359 18.6294H41.5312C41.6953 17.4341 42.1719 16.5317 42.9609 15.9224C43.75 15.3052 44.6797 14.9966 45.75 14.9966C47.0859 14.9966 48.125 15.3481 48.8672 16.0513C49.6172 16.7544 49.9883 17.8052 49.9805 19.2036L49.9336 23.645C49.9336 24.106 49.9922 24.4263 50.1094 24.606C50.2344 24.7778 50.4453 24.8638 50.7422 24.8638H51.1992V26.7856C50.7773 26.8169 50.4336 26.8325 50.168 26.8325ZM43.3594 23.3989C43.3594 24.4224 44.0391 24.9341 45.3984 24.9341C45.9688 24.9341 46.4844 24.8521 46.9453 24.688C47.4062 24.5161 47.7695 24.2856 48.0352 23.9966L48.082 20.2349L45.9492 21.1021C44.9805 21.4927 44.3047 21.8481 43.9219 22.1685C43.5469 22.481 43.3594 22.8911 43.3594 23.3989ZM60.4453 26.7856V21.7466H55.0898V26.7856H53.168V15.1958H55.0898V19.8013H60.4453V15.1958H62.3672V26.7856H60.4453ZM64.0781 29.8091V24.8403H65.0859C65.8828 23.9966 66.4688 22.8091 66.8438 21.2778C67.2188 19.7466 67.418 17.7192 67.4414 15.1958H74.543V24.8403H76.2773V29.8091H74.4258V26.7856H65.9297V29.8091H64.0781ZM69.0703 17.1411C69.0234 18.8442 68.8555 20.3247 68.5664 21.5825C68.2852 22.8325 67.8398 23.9185 67.2305 24.8403H72.6211V17.1411H69.0703ZM86.1445 26.8325C85.582 26.8325 85.125 26.6724 84.7734 26.3521C84.4297 26.0317 84.2305 25.5591 84.1758 24.9341C83.3789 26.231 82.2539 26.8794 80.8008 26.8794C79.7617 26.8794 78.9375 26.6099 78.3281 26.0708C77.7188 25.5317 77.4141 24.7544 77.4141 23.7388C77.4141 22.8091 77.6641 22.0825 78.1641 21.5591C78.6719 21.0356 79.4922 20.5552 80.625 20.1177L84.0586 18.77C83.9336 17.5825 83.1562 16.9888 81.7266 16.9888C81.0547 16.9888 80.5078 17.1255 80.0859 17.3989C79.6641 17.6724 79.4062 18.0825 79.3125 18.6294H77.5078C77.6719 17.4341 78.1484 16.5317 78.9375 15.9224C79.7266 15.3052 80.6562 14.9966 81.7266 14.9966C83.0625 14.9966 84.1016 15.3481 84.8438 16.0513C85.5938 16.7544 85.9648 17.8052 85.957 19.2036L85.9102 23.645C85.9102 24.106 85.9688 24.4263 86.0859 24.606C86.2109 24.7778 86.4219 24.8638 86.7188 24.8638H87.1758V26.7856C86.7539 26.8169 86.4102 26.8325 86.1445 26.8325ZM79.3359 23.3989C79.3359 24.4224 80.0156 24.9341 81.375 24.9341C81.9453 24.9341 82.4609 24.8521 82.9219 24.688C83.3828 24.5161 83.7461 24.2856 84.0117 23.9966L84.0586 20.2349L81.9258 21.1021C80.957 21.4927 80.2812 21.8481 79.8984 22.1685C79.5234 22.481 79.3359 22.8911 79.3359 23.3989Z" fill="black"/>
<path d="M4.66699 102.786H17.3428V87.229H45.1143V102.786H57.79V60.8403H45.1143V75.0718H17.3428V60.8403H4.66699V102.786ZM60.5326 102.786H75.1674L89.3988 77.3765C89.8598 76.5506 90.2919 75.7056 90.6952 74.8413C91.1177 73.9771 91.4634 73.2952 91.7323 72.7959H91.9052C92.1933 73.276 92.5486 73.9386 92.9711 74.7837C93.3936 75.6095 93.8354 76.445 94.2963 77.29L108.499 102.786H123.307L98.9057 60.6675H84.8183L60.5326 102.786ZM72.4018 95.7275H111.063L106.77 85.4717H76.8095L72.4018 95.7275ZM125.444 60.8403V102.786H188.016V60.8403H176.032V91.2334H162.722V60.8403H150.738V91.2334H137.429V60.8403H125.444ZM238.06 102.786V60.8403H224.693L207.523 81.5249C207.043 82.0819 206.697 82.5428 206.486 82.9077C206.294 83.2534 206.112 83.6375 205.939 84.0601H205.68C205.68 83.5415 205.68 83.0614 205.68 82.6196C205.699 82.1779 205.708 81.6882 205.708 81.1504V60.8403H193.81V102.786H207.178L224.348 81.7842C224.847 81.2464 225.193 80.7759 225.385 80.3726C225.596 79.95 225.798 79.5275 225.99 79.105H226.249C226.23 79.5083 226.21 79.9308 226.191 80.3726C226.172 80.7951 226.162 81.3232 226.162 81.957V102.786H238.06ZM283.59 102.786H313.003C318.918 102.786 323.739 101.758 327.465 99.7031C331.21 97.6481 333.083 94.652 333.083 90.7148C333.083 87.834 332.18 85.5677 330.375 83.916C328.589 82.2643 326.207 81.2272 323.23 80.8047V80.6895C325.458 80.0749 327.273 78.9993 328.675 77.4629C330.096 75.9072 330.807 73.9482 330.807 71.5859C330.807 68.1097 329.203 65.4497 325.996 63.606C322.788 61.7622 318.16 60.8403 312.11 60.8403H283.59V102.786ZM296.006 92.7603V85.8174H310.497C313.55 85.8174 315.932 86.0767 317.641 86.5952C319.37 87.0946 320.234 87.9204 320.234 89.0728C320.234 90.4556 319.37 91.4159 317.641 91.9536C315.932 92.4914 313.55 92.7603 310.497 92.7603H296.006ZM296.006 77.1748V71.1826H309.719C312.696 71.1826 314.914 71.4323 316.374 71.9316C317.853 72.431 318.592 73.1896 318.592 74.2075C318.592 75.187 317.853 75.9264 316.374 76.4258C314.914 76.9251 312.696 77.1748 309.719 77.1748H296.006ZM339.743 102.786H385.088V91.4927H351.872V86.8257H381.343V76.2529H351.872V72.3926H384.598V60.8403H339.743V102.786ZM430.093 111.054H441.386V91.0605H389.098V111.054H400.391V102.786H430.093V111.054ZM397.453 60.8403L396.358 80.7471C396.127 84.7227 395.724 87.738 395.148 89.793C394.572 91.8288 393.496 93.9126 391.921 96.0444H403.33C404.443 94.4119 405.289 92.597 405.865 90.5996C406.46 88.583 406.854 85.5197 407.046 81.4097L407.449 72.5654H423.611V101.835H435.538V60.8403H397.453ZM453.295 90.4556V102.901C453.814 103.112 454.476 103.275 455.283 103.391C456.09 103.525 457.059 103.592 458.193 103.592C462.591 103.592 466.038 102.478 468.535 100.25C471.051 98.0226 473.48 95.113 475.823 91.5215L494.808 60.8403H481.009L470.465 78.7305C470.215 79.0378 470.014 79.3258 469.86 79.5947C469.726 79.8444 469.601 80.1229 469.486 80.4302H469.284C469.13 80.1421 468.986 79.8636 468.852 79.5947C468.737 79.3066 468.573 79.0186 468.362 78.7305L457.184 60.8403H444.076L462.658 88.8135L463.263 86.9697C462.303 88.3525 461.467 89.3512 460.757 89.9658C460.065 90.5804 459.028 90.8877 457.645 90.8877C456.551 90.8877 455.696 90.8589 455.081 90.8013C454.486 90.7244 453.891 90.6092 453.295 90.4556ZM500.539 60.8403V102.786H557.609V111.054H568.931V91.2622H563.111V60.8403H551.127V91.2622H537.817V60.8403H525.804V91.2622H512.523V60.8403H500.539ZM620.078 102.786V60.8403H606.711L589.541 81.5249C589.061 82.0819 588.716 82.5428 588.504 82.9077C588.312 83.2534 588.13 83.6375 587.957 84.0601H587.698C587.698 83.5415 587.698 83.0614 587.698 82.6196C587.717 82.1779 587.726 81.6882 587.726 81.1504V60.8403H575.828V102.786H589.196L606.366 81.7842C606.865 81.2464 607.211 80.7759 607.403 80.3726C607.614 79.95 607.816 79.5275 608.008 79.105H608.267C608.248 79.5083 608.229 79.9308 608.209 80.3726C608.19 80.7951 608.181 81.3232 608.181 81.957V102.786H620.078ZM626.757 102.786H672.102V91.4927H638.886V86.8257H668.357V76.2529H638.886V72.3926H671.612V60.8403H626.757V102.786ZM1.58447 152.381C1.58447 159.737 4.45573 165.287 10.1982 169.032C15.96 172.777 23.5846 174.65 33.0723 174.65C42.4255 174.65 49.5316 173.238 54.3906 170.415C59.2689 167.573 61.9289 163.271 62.3706 157.509L62.457 156.241H49.6948L49.5508 157.394C49.3203 158.892 47.9663 160.342 45.4888 161.744C43.0112 163.146 38.9012 163.847 33.1587 163.847C27.6274 163.847 23.2197 162.992 19.9355 161.283C16.6706 159.573 15.0381 156.712 15.0381 152.698V152.813C15.0381 150.009 16.6514 147.493 19.8779 145.265C23.1045 143.037 27.541 141.923 33.1875 141.923C38.2002 141.923 41.9261 142.615 44.3652 143.998C46.8044 145.38 48.4945 146.859 49.4355 148.434L49.6372 149.529H62.457L62.2842 148.29C60.7669 142.336 57.79 137.967 53.3535 135.182C48.9362 132.378 42.1566 130.976 33.0146 130.976C23.7575 130.976 16.2 132.829 10.3423 136.536C4.50374 140.224 1.58447 145.774 1.58447 153.188V152.381ZM66.8705 173.786H78.8837V143.364H98.1278V173.786H110.141V131.84H66.8705V173.786ZM116.525 173.786H161.87V162.493H128.653V157.826H158.125V147.253H128.653V143.393H161.38V131.84H116.525V173.786ZM207.998 182.054H219.32V162.262H213.5V131.84H201.487V162.262H182.214V131.84H170.201V173.786H207.998V182.054ZM268.137 173.786V131.84H254.769L237.599 152.525C237.119 153.082 236.774 153.543 236.562 153.908C236.37 154.253 236.188 154.638 236.015 155.06H235.756C235.756 154.542 235.756 154.061 235.756 153.62C235.775 153.178 235.785 152.688 235.785 152.15V131.84H223.887V173.786H237.254L254.424 152.784C254.923 152.246 255.269 151.776 255.461 151.373C255.672 150.95 255.874 150.528 256.066 150.105H256.325C256.306 150.508 256.287 150.931 256.267 151.373C256.248 151.795 256.239 152.323 256.239 152.957V173.786H268.137ZM273.248 173.786H287.883L302.115 148.376C302.576 147.551 303.008 146.706 303.411 145.841C303.833 144.977 304.179 144.295 304.448 143.796H304.621C304.909 144.276 305.264 144.939 305.687 145.784C306.109 146.61 306.551 147.445 307.012 148.29L321.215 173.786H336.022L311.621 131.667H297.534L273.248 173.786ZM285.117 166.728H323.779L319.486 156.472H289.525L285.117 166.728ZM350.256 131.84L348.931 154.484C348.739 157.442 348.268 159.324 347.519 160.13C346.77 160.918 345.541 161.312 343.832 161.312C343.352 161.312 342.919 161.292 342.535 161.254C342.151 161.196 341.738 161.11 341.297 160.995V173.872C341.854 174.064 342.516 174.208 343.284 174.304C344.072 174.419 345.051 174.477 346.223 174.477C351.101 174.477 354.462 172.902 356.306 169.752C358.15 166.603 359.235 162.377 359.561 157.077L360.454 143.162H376.069V173.786H388.053V131.84H350.256ZM440.659 173.786V131.84H427.291L410.121 152.525C409.641 153.082 409.296 153.543 409.084 153.908C408.892 154.253 408.71 154.638 408.537 155.06H408.278C408.278 154.542 408.278 154.061 408.278 153.62C408.297 153.178 408.307 152.688 408.307 152.15V131.84H396.409V173.786H409.776L426.946 152.784C427.445 152.246 427.791 151.776 427.983 151.373C428.194 150.95 428.396 150.528 428.588 150.105H428.847C428.828 150.508 428.809 150.931 428.789 151.373C428.77 151.795 428.761 152.323 428.761 152.957V173.786H440.659ZM445.73 152.381C445.73 159.737 448.601 165.287 454.344 169.032C460.105 172.777 467.73 174.65 477.218 174.65C486.571 174.65 493.677 173.238 498.536 170.415C503.414 167.573 506.074 163.271 506.516 157.509L506.603 156.241H493.84L493.696 157.394C493.466 158.892 492.112 160.342 489.634 161.744C487.157 163.146 483.047 163.847 477.304 163.847C471.773 163.847 467.365 162.992 464.081 161.283C460.816 159.573 459.184 156.712 459.184 152.698V152.813C459.184 150.009 460.797 147.493 464.023 145.265C467.25 143.037 471.687 141.923 477.333 141.923C482.346 141.923 486.072 142.615 488.511 143.998C490.95 145.38 492.64 146.859 493.581 148.434L493.783 149.529H506.603L506.43 148.29C504.912 142.336 501.936 137.967 497.499 135.182C493.082 132.378 486.302 130.976 477.16 130.976C467.903 130.976 460.346 132.829 454.488 136.536C448.649 140.224 445.73 145.774 445.73 153.188V152.381ZM509.49 143.594H529.512V173.786H542.332V143.594H562.325V131.84H509.49V143.594ZM567.344 131.84H579.357V144.314H592.35C598.035 144.295 602.154 145.64 604.708 148.348C607.263 151.056 608.54 154.618 608.54 159.036C608.54 163.722 607.234 167.352 604.622 169.925C602.029 172.499 597.996 173.786 592.522 173.786H567.344V131.84ZM579.357 155.406V162.838H590.189C592.417 162.838 594.03 162.589 595.029 162.089C596.047 161.571 596.556 160.601 596.556 159.18C596.556 157.951 596.047 157.019 595.029 156.385C594.03 155.732 592.417 155.406 590.189 155.406H579.357ZM612.487 173.786H625.335V131.84H612.487V173.786Z" fill="black"/>
</svg>
