<svg width="1070" height="214" viewBox="0 0 1070 214" fill="none" xmlns="http://www.w3.org/2000/svg">
<path d="M699.425 136.715C699.4 139.089 697.997 141.563 694.558 144.082C691.12 146.601 685.922 148.947 679.012 151.044C665.216 155.231 645.15 158.269 620.211 160.009C570.37 163.487 501.501 161.758 425.433 153.978C349.367 146.197 280.604 133.848 230.933 120.19C206.083 113.356 186.099 106.219 172.387 99.2039C165.523 95.6924 160.331 92.2618 156.892 88.9875C153.422 85.683 152 82.7954 152.026 80.3485C152.051 77.9743 153.454 75.5006 156.892 72.9811C160.33 70.4622 165.528 68.1165 172.438 66.0192C186.234 61.8319 206.301 58.7947 231.24 57.0544C281.08 53.5765 349.95 55.305 426.017 63.0856C502.083 70.866 570.846 83.2151 620.518 96.8736C645.368 103.707 665.351 110.844 679.064 117.859C685.928 121.371 691.12 124.801 694.558 128.076C698.029 131.38 699.45 134.268 699.425 136.715Z" stroke="#E33A30" stroke-width="4.09172"/>
<path d="M2.08447 35.1216C2.08447 42.6694 5.09017 48.3159 11.1016 52.061C17.1322 55.7869 24.6704 57.6499 33.7163 57.6499C42.7622 57.6499 50.3197 55.7869 56.3887 52.061C62.4769 48.3159 65.521 42.6694 65.521 35.1216V36.1011C65.521 28.7645 62.4769 23.2428 56.3887 19.5361C50.3197 15.8294 42.7622 13.9761 33.7163 13.9761C24.6512 13.9761 17.113 15.8294 11.1016 19.5361C5.09017 23.2428 2.08447 28.7645 2.08447 36.1011V35.1216ZM15.3076 35.5249V35.813C15.3076 32.1063 16.9881 29.3695 20.3491 27.6025C23.7293 25.8356 28.2043 24.9714 33.7739 25.0098C39.3052 25.0482 43.7801 25.9316 47.1987 27.6602C50.6174 29.3887 52.3267 32.1063 52.3267 35.813V35.5825C52.3267 39.4237 50.6077 42.2661 47.1699 44.1099C43.7513 45.9536 39.286 46.8563 33.7739 46.8179C28.2235 46.7795 23.7581 45.8576 20.3779 44.0522C16.9977 42.2469 15.3076 39.4045 15.3076 35.5249ZM76.9499 35.3809C76.9499 42.7367 79.8212 48.2871 85.5637 52.0322C91.3254 55.7773 98.9501 57.6499 108.438 57.6499C117.791 57.6499 124.897 56.2383 129.756 53.415C134.634 50.5726 137.294 46.2705 137.736 40.5088L137.823 39.2412H125.06L124.916 40.3936C124.686 41.8916 123.332 43.3416 120.854 44.7437C118.377 46.1457 114.267 46.8467 108.524 46.8467C102.993 46.8467 98.5852 45.992 95.301 44.2827C92.036 42.5734 90.4036 39.7118 90.4036 35.6978V35.813C90.4036 33.009 92.0168 30.493 95.2434 28.2651C98.47 26.0373 102.906 24.9233 108.553 24.9233C113.566 24.9233 117.292 25.6147 119.731 26.9976C122.17 28.3804 123.86 29.8592 124.801 31.4341L125.003 32.5288H137.823L137.65 31.29C136.132 25.3363 133.156 20.967 128.719 18.1821C124.302 15.3781 117.522 13.9761 108.38 13.9761C99.123 13.9761 91.5655 15.8294 85.7078 19.5361C79.8692 23.2236 76.9499 28.7741 76.9499 36.1875V35.3809ZM137.555 26.5942H157.577V56.7856H170.397V26.5942H190.39V14.8403H137.555V26.5942ZM189.086 56.7856H203.72L217.952 31.3765C218.413 30.5506 218.845 29.7056 219.248 28.8413C219.671 27.9771 220.016 27.2952 220.285 26.7959H220.458C220.746 27.276 221.102 27.9386 221.524 28.7837C221.947 29.6095 222.388 30.445 222.849 31.29L237.052 56.7856H251.86L227.459 14.6675H213.371L189.086 56.7856ZM200.955 49.7275H239.616L235.323 39.4717H205.363L200.955 49.7275ZM253.407 56.7856H282.821C288.736 56.7856 293.557 55.7581 297.283 53.7031C301.028 51.6481 302.9 48.652 302.9 44.7148C302.9 41.834 301.998 39.5677 300.192 37.916C298.406 36.2643 296.025 35.2272 293.048 34.8047V34.6895C295.276 34.0749 297.091 32.9993 298.493 31.4629C299.914 29.9072 300.624 27.9482 300.624 25.5859C300.624 22.1097 299.021 19.4497 295.813 17.606C292.606 15.7622 287.978 14.8403 281.928 14.8403H253.407V56.7856ZM265.824 46.7603V39.8174H280.314C283.368 39.8174 285.75 40.0767 287.459 40.5952C289.187 41.0946 290.052 41.9204 290.052 43.0728C290.052 44.4556 289.187 45.4159 287.459 45.9536C285.75 46.4914 283.368 46.7603 280.314 46.7603H265.824ZM265.824 31.1748V25.1826H279.537C282.513 25.1826 284.732 25.4323 286.191 25.9316C287.67 26.431 288.41 27.1896 288.41 28.2075C288.41 29.187 287.67 29.9264 286.191 30.4258C284.732 30.9251 282.513 31.1748 279.537 31.1748H265.824ZM308.971 14.8403H320.984V27.3145H333.977C339.662 27.2952 343.781 28.6396 346.336 31.3477C348.89 34.0557 350.167 37.6183 350.167 42.0356C350.167 46.7218 348.861 50.3517 346.249 52.9253C343.656 55.4989 339.623 56.7856 334.15 56.7856H308.971V14.8403ZM320.984 38.4058V45.8384H331.816C334.044 45.8384 335.657 45.5887 336.656 45.0894C337.674 44.5708 338.183 43.6009 338.183 42.1797C338.183 40.9505 337.674 40.019 336.656 39.3853C335.657 38.7323 334.044 38.4058 331.816 38.4058H320.984ZM360.213 26.5942H380.235V56.7856H393.055V26.5942H413.048V14.8403H360.213V26.5942ZM417.736 56.7856H463.081V45.4927H429.864V40.8257H459.336V30.2529H429.864V26.3926H462.591V14.8403H417.736V56.7856ZM517.138 46.7603C513.355 46.741 510.532 46.4434 508.669 45.8672C506.825 45.2718 505.836 44.0618 505.701 42.2373L505.644 41.4883H494.005L494.034 42.3525C494.284 47.7301 496.377 51.6097 500.314 53.9912C504.251 56.3535 509.879 57.5347 517.196 57.5347C524.225 57.5347 529.651 56.3343 533.473 53.9336C537.295 51.5329 539.206 48.3831 539.206 44.4844C539.206 41.6611 538.341 39.4525 536.613 37.8584C534.884 36.2643 532.599 35.256 529.757 34.8335V34.7183C532.196 34.1229 534.164 33.0282 535.662 31.4341C537.16 29.84 537.909 27.9098 537.909 25.6436C537.929 22.0905 536.219 19.2769 532.781 17.2026C529.344 15.1284 524.158 14.0913 517.225 14.0913C510.003 14.0913 504.463 15.3685 500.602 17.9229C496.761 20.4772 494.696 24.2319 494.408 29.187L494.322 30.2817H505.961L506.076 29.3599C506.21 28.0347 507.151 26.9591 508.899 26.1333C510.647 25.3075 513.384 24.8945 517.11 24.8945C520.125 24.8945 522.295 25.1346 523.62 25.6147C524.965 26.0949 525.637 26.7287 525.637 27.5161C525.637 28.6108 525.041 29.3599 523.851 29.7632C522.66 30.1473 520.864 30.3394 518.464 30.3394H510.426V40.8545H518.435C521.277 40.8545 523.38 41.0273 524.744 41.373C526.107 41.6995 526.78 42.4198 526.76 43.5337C526.76 45.0317 525.992 45.944 524.456 46.2705C522.938 46.597 520.499 46.7603 517.138 46.7603ZM538.299 56.7856H552.934L567.165 31.3765C567.626 30.5506 568.058 29.7056 568.461 28.8413C568.884 27.9771 569.23 27.2952 569.499 26.7959H569.671C569.959 27.276 570.315 27.9386 570.737 28.7837C571.16 29.6095 571.602 30.445 572.062 31.29L586.265 56.7856H601.073L576.672 14.6675H562.584L538.299 56.7856ZM550.168 49.7275H588.829L584.537 39.4717H554.576L550.168 49.7275ZM643.039 56.7856H631.054V44.2251H615.872L614.115 43.5049C609.947 43.14 606.711 41.6803 604.406 39.126C602.102 36.5524 600.949 33.249 600.949 29.2158C600.949 24.8177 602.399 21.3223 605.3 18.7295C608.2 16.1367 612.05 14.8403 616.852 14.8403H643.039V56.7856ZM631.054 33.8828V25.5283H619.589C617.322 25.5283 615.671 25.8836 614.634 26.5942C613.596 27.3049 613.078 28.342 613.078 29.7056C613.078 31.0692 613.587 32.1063 614.605 32.8169C615.642 33.5275 617.303 33.8828 619.589 33.8828H631.054ZM612.242 56.7856H599.48L611.897 38.2041H624.371L612.242 56.7856ZM649.452 56.7856H678.865C684.781 56.7856 689.601 55.7581 693.327 53.7031C697.072 51.6481 698.945 48.652 698.945 44.7148C698.945 41.834 698.042 39.5677 696.237 37.916C694.451 36.2643 692.069 35.2272 689.092 34.8047V34.6895C691.32 34.0749 693.135 32.9993 694.537 31.4629C695.958 29.9072 696.669 27.9482 696.669 25.5859C696.669 22.1097 695.065 19.4497 691.858 17.606C688.65 15.7622 684.022 14.8403 677.972 14.8403H649.452V56.7856ZM661.868 46.7603V39.8174H676.359C679.413 39.8174 681.794 40.0767 683.503 40.5952C685.232 41.0946 686.096 41.9204 686.096 43.0728C686.096 44.4556 685.232 45.4159 683.503 45.9536C681.794 46.4914 679.413 46.7603 676.359 46.7603H661.868ZM661.868 31.1748V25.1826H675.581C678.558 25.1826 680.776 25.4323 682.236 25.9316C683.715 26.431 684.454 27.1896 684.454 28.2075C684.454 29.187 683.715 29.9264 682.236 30.4258C680.776 30.9251 678.558 31.1748 675.581 31.1748H661.868ZM737.137 56.7856H752.578L727.054 30.7715L717.864 37.1094L737.137 56.7856ZM711.065 29.4463V41.085H724.317L752.117 14.8403H735.38L720.226 29.4463H711.065ZM705.015 56.7856H717.029V14.8403H705.015V56.7856ZM766.917 44.4556V56.9009C767.435 57.1121 768.098 57.2754 768.905 57.3906C769.711 57.5251 770.681 57.5923 771.814 57.5923C776.213 57.5923 779.66 56.4784 782.157 54.2505C784.673 52.0226 787.102 49.113 789.445 45.5215L808.43 14.8403H794.631L784.087 32.7305C783.837 33.0378 783.636 33.3258 783.482 33.5947C783.347 33.8444 783.223 34.1229 783.107 34.4302H782.906C782.752 34.1421 782.608 33.8636 782.474 33.5947C782.358 33.3066 782.195 33.0186 781.984 32.7305L770.806 14.8403H757.698L776.28 42.8135L776.885 40.9697C775.924 42.3525 775.089 43.3512 774.378 43.9658C773.687 44.5804 772.65 44.8877 771.267 44.8877C770.172 44.8877 769.318 44.8589 768.703 44.8013C768.108 44.7244 767.512 44.6092 766.917 44.4556ZM5.16699 127.786H17.8428V112.229H45.6143V127.786H58.29V85.8403H45.6143V100.072H17.8428V85.8403H5.16699V127.786ZM60.4426 127.786H75.0774L89.3088 102.376C89.7698 101.551 90.2019 100.706 90.6052 99.8413C91.0277 98.9771 91.3734 98.2952 91.6423 97.7959H91.8152C92.1033 98.276 92.4586 98.9386 92.8811 99.7837C93.3036 100.61 93.7454 101.445 94.2063 102.29L108.409 127.786H123.217L98.8157 85.6675H84.7283L60.4426 127.786ZM72.3118 120.728H110.973L106.68 110.472H76.7195L72.3118 120.728ZM151.519 127.786H164.195V118.538H181.624C188.596 118.576 193.791 117.136 197.21 114.217C200.628 111.298 202.338 107.293 202.338 102.204C202.338 96.9028 200.609 92.8504 197.152 90.0464C193.695 87.2424 188.577 85.8403 181.797 85.8403H151.519V127.786ZM164.195 107.937V96.9316H179.089C182.911 96.9316 185.629 97.3638 187.242 98.228C188.855 99.0923 189.662 100.485 189.662 102.405C189.662 104.268 188.855 105.661 187.242 106.583C185.629 107.485 182.911 107.937 179.089 107.937H164.195ZM201.84 127.786H216.475L230.706 102.376C231.167 101.551 231.599 100.706 232.002 99.8413C232.425 98.9771 232.771 98.2952 233.04 97.7959H233.212C233.5 98.276 233.856 98.9386 234.278 99.7837C234.701 100.61 235.143 101.445 235.603 102.29L249.806 127.786H264.614L240.213 85.6675H226.125L201.84 127.786ZM213.709 120.728H252.37L248.078 110.472H218.117L213.709 120.728ZM285.722 117.76C281.939 117.741 279.116 117.443 277.253 116.867C275.409 116.272 274.42 115.062 274.285 113.237L274.228 112.488H262.589L262.618 113.353C262.868 118.73 264.961 122.61 268.898 124.991C272.835 127.354 278.463 128.535 285.78 128.535C292.809 128.535 298.235 127.334 302.057 124.934C305.879 122.533 307.79 119.383 307.79 115.484C307.79 112.661 306.925 110.452 305.197 108.858C303.468 107.264 301.183 106.256 298.341 105.833V105.718C300.78 105.123 302.748 104.028 304.246 102.434C305.744 100.84 306.493 98.9098 306.493 96.6436C306.513 93.0905 304.803 90.2769 301.365 88.2026C297.928 86.1284 292.742 85.0913 285.809 85.0913C278.587 85.0913 273.047 86.3685 269.186 88.9229C265.345 91.4772 263.28 95.2319 262.992 100.187L262.906 101.282H274.545L274.66 100.36C274.794 99.0347 275.735 97.9591 277.483 97.1333C279.231 96.3075 281.968 95.8945 285.694 95.8945C288.709 95.8945 290.879 96.1346 292.204 96.6147C293.549 97.0949 294.221 97.7287 294.221 98.5161C294.221 99.6108 293.626 100.36 292.435 100.763C291.244 101.147 289.448 101.339 287.048 101.339H279.01V111.854H287.019C289.861 111.854 291.964 112.027 293.328 112.373C294.691 112.7 295.364 113.42 295.344 114.534C295.344 116.032 294.576 116.944 293.04 117.271C291.522 117.597 289.083 117.76 285.722 117.76ZM314.94 127.786H327.616V118.538H345.045C352.017 118.576 357.212 117.136 360.63 114.217C364.049 111.298 365.758 107.293 365.758 102.204C365.758 96.9028 364.03 92.8504 360.573 90.0464C357.116 87.2424 351.997 85.8403 345.218 85.8403H314.94V127.786ZM327.616 107.937V96.9316H342.51C346.332 96.9316 349.049 97.3638 350.663 98.228C352.276 99.0923 353.083 100.485 353.083 102.405C353.083 104.268 352.276 105.661 350.663 106.583C349.049 107.485 346.332 107.937 342.51 107.937H327.616ZM365.261 127.786H379.895L394.127 102.376C394.588 101.551 395.02 100.706 395.423 99.8413C395.846 98.9771 396.191 98.2952 396.46 97.7959H396.633C396.921 98.276 397.277 98.9386 397.699 99.7837C398.122 100.61 398.563 101.445 399.024 102.29L413.227 127.786H428.035L403.634 85.6675H389.546L365.261 127.786ZM377.13 120.728H415.791L411.498 110.472H381.537L377.13 120.728ZM429.582 127.786H455.02C460.282 127.786 464.229 126.633 466.86 124.329C469.492 122.005 470.807 118.634 470.807 114.217C470.807 109.953 469.501 106.669 466.889 104.364C464.296 102.04 460.359 100.878 455.078 100.878H441.595V97.2197H467.811V85.8403H429.582V127.786ZM441.595 110.904H452.658C454.847 110.904 456.441 111.173 457.44 111.71C458.458 112.229 458.967 113.074 458.967 114.246C458.967 115.513 458.468 116.377 457.469 116.838C456.47 117.28 454.866 117.501 452.658 117.501H441.595V110.904ZM476.078 106.122C476.078 113.669 479.084 119.316 485.095 123.061C491.126 126.787 498.664 128.65 507.71 128.65C516.756 128.65 524.313 126.787 530.382 123.061C536.47 119.316 539.515 113.669 539.515 106.122V107.101C539.515 99.7645 536.47 94.2428 530.382 90.5361C524.313 86.8294 516.756 84.9761 507.71 84.9761C498.645 84.9761 491.107 86.8294 485.095 90.5361C479.084 94.2428 476.078 99.7645 476.078 107.101V106.122ZM489.301 106.525V106.813C489.301 103.106 490.982 100.369 494.343 98.6025C497.723 96.8356 502.198 95.9714 507.767 96.0098C513.299 96.0482 517.774 96.9316 521.192 98.6602C524.611 100.389 526.32 103.106 526.32 106.813V106.583C526.32 110.424 524.601 113.266 521.163 115.11C517.745 116.954 513.28 117.856 507.767 117.818C502.217 117.779 497.752 116.858 494.371 115.052C490.991 113.247 489.301 110.404 489.301 106.525ZM549.935 97.5942H569.957V127.786H582.777V97.5942H602.77V85.8403H549.935V97.5942ZM639.579 127.786H655.021L629.496 101.771L620.307 108.109L639.579 127.786ZM613.508 100.446V112.085H626.76L654.56 85.8403H637.822L622.669 100.446H613.508ZM607.458 127.786H619.471V85.8403H607.458V127.786ZM669.359 115.456V127.901C669.878 128.112 670.541 128.275 671.347 128.391C672.154 128.525 673.124 128.592 674.257 128.592C678.655 128.592 682.102 127.478 684.599 125.25C687.115 123.023 689.545 120.113 691.888 116.521L710.873 85.8403H697.073L686.529 103.73C686.28 104.038 686.078 104.326 685.924 104.595C685.79 104.844 685.665 105.123 685.55 105.43H685.348C685.195 105.142 685.051 104.864 684.916 104.595C684.801 104.307 684.638 104.019 684.426 103.73L673.249 85.8403H660.141L678.722 113.813L679.327 111.97C678.367 113.353 677.532 114.351 676.821 114.966C676.13 115.58 675.092 115.888 673.71 115.888C672.615 115.888 671.76 115.859 671.146 115.801C670.55 115.724 669.955 115.609 669.359 115.456ZM746.176 106.381C746.176 113.737 749.047 119.287 754.79 123.032C760.551 126.777 768.176 128.65 777.664 128.65C787.017 128.65 794.123 127.238 798.982 124.415C803.86 121.573 806.52 117.271 806.962 111.509L807.048 110.241H794.286L794.142 111.394C793.912 112.892 792.558 114.342 790.08 115.744C787.603 117.146 783.493 117.847 777.75 117.847C772.219 117.847 767.811 116.992 764.527 115.283C761.262 113.573 759.63 110.712 759.63 106.698V106.813C759.63 104.009 761.243 101.493 764.469 99.2651C767.696 97.0373 772.132 95.9233 777.779 95.9233C782.792 95.9233 786.518 96.6147 788.957 97.9976C791.396 99.3804 793.086 100.859 794.027 102.434L794.229 103.529H807.048L806.876 102.29C805.358 96.3363 802.381 91.967 797.945 89.1821C793.528 86.3781 786.748 84.9761 777.606 84.9761C768.349 84.9761 760.791 86.8294 754.934 90.5361C749.095 94.2236 746.176 99.7741 746.176 107.188V106.381ZM804.88 127.786H819.514L833.746 102.376C834.207 101.551 834.639 100.706 835.042 99.8413C835.465 98.9771 835.811 98.2952 836.079 97.7959H836.252C836.54 98.276 836.896 98.9386 837.318 99.7837C837.741 100.61 838.182 101.445 838.643 102.29L852.846 127.786H867.654L843.253 85.6675H829.165L804.88 127.786ZM816.749 120.728H855.41L851.117 110.472H821.157L816.749 120.728ZM913.451 127.786V85.8403H900.084L882.914 106.525C882.434 107.082 882.088 107.543 881.877 107.908C881.685 108.253 881.503 108.638 881.33 109.06H881.07C881.07 108.542 881.07 108.061 881.07 107.62C881.09 107.178 881.099 106.688 881.099 106.15V85.8403H869.201V127.786H882.568L899.738 106.784C900.238 106.246 900.583 105.776 900.775 105.373C900.987 104.95 901.188 104.528 901.38 104.105H901.64C901.621 104.508 901.601 104.931 901.582 105.373C901.563 105.795 901.553 106.323 901.553 106.957V127.786H913.451ZM891.413 76.103C890.03 76.103 888.878 75.6997 887.956 74.8931C887.053 74.0864 886.362 72.8957 885.881 71.3208L878.247 74.605C879.553 77.7547 881.339 79.9346 883.606 81.1445C885.872 82.3545 888.474 82.9595 891.413 82.9595C894.332 82.9595 896.934 82.3545 899.22 81.1445C901.524 79.9154 903.263 77.7259 904.434 74.5762L897.002 71.3208C896.579 72.8573 895.878 74.0384 894.898 74.8643C893.938 75.6901 892.776 76.103 891.413 76.103ZM920.464 97.5942H940.486V127.786H953.306V97.5942H973.299V85.8403H920.464V97.5942ZM971.995 127.786H986.63L1000.86 102.376C1001.32 101.551 1001.75 100.706 1002.16 99.8413C1002.58 98.9771 1002.93 98.2952 1003.19 97.7959H1003.37C1003.66 98.276 1004.01 98.9386 1004.43 99.7837C1004.86 100.61 1005.3 101.445 1005.76 102.29L1019.96 127.786H1034.77L1010.37 85.6675H996.281L971.995 127.786ZM983.864 120.728H1022.53L1018.23 110.472H988.272L983.864 120.728Z" fill="black"/>
</svg>
