<svg width="1167" height="242" viewBox="0 0 1167 242" fill="none" xmlns="http://www.w3.org/2000/svg">
<path d="M1157.85 153.142C1157.82 155.984 1156.08 158.905 1151.93 161.844C1147.79 164.779 1141.55 167.496 1133.3 169.918C1116.82 174.754 1092.88 178.255 1063.16 180.261C1003.75 184.269 921.685 182.276 831.053 173.313C740.423 164.349 658.483 150.121 599.282 134.38C569.667 126.506 545.828 118.276 529.454 110.176C521.259 106.122 515.035 102.149 510.898 98.341C506.723 94.4966 504.961 91.09 504.993 88.1627C505.024 85.3203 506.764 82.3991 510.912 79.4603C515.055 76.5253 521.295 73.8081 529.547 71.3862C546.025 66.55 569.967 63.0488 599.688 61.0434C659.093 57.0352 741.16 59.0278 831.792 67.9916C922.422 76.9552 1004.36 91.1832 1063.56 106.924C1093.18 114.798 1117.02 123.028 1133.39 131.128C1141.59 135.182 1147.81 139.155 1151.95 142.963C1156.12 146.808 1157.88 150.214 1157.85 153.142Z" stroke="#E33A30" stroke-width="4.09172"/>
<path d="M0.86472 142.81H13.974V133.562H31.9992C39.2093 133.6 44.5821 132.16 48.1176 129.241C51.6532 126.321 53.4209 122.317 53.4209 117.228C53.4209 111.927 51.6333 107.874 48.058 105.07C44.4828 102.266 39.1894 100.864 32.178 100.864H0.86472V142.81ZM13.974 122.96V111.956H29.3774C33.33 111.956 36.1405 112.388 37.809 113.252C39.4774 114.116 40.3117 115.509 40.3117 117.429C40.3117 119.292 39.4774 120.685 37.809 121.606C36.1405 122.509 33.33 122.96 29.3774 122.96H13.974Z" fill="black"/>
<path d="M62.216 142.81H77.3513L92.0694 117.4C92.5461 116.575 92.993 115.729 93.4101 114.865C93.8471 114.001 94.2046 113.319 94.4827 112.82H94.6614C94.9594 113.3 95.3268 113.963 95.7638 114.808C96.2008 115.633 96.6576 116.469 97.1343 117.314L111.823 142.81H127.137L101.901 100.691H87.3322L62.216 142.81ZM74.4911 135.751H114.474L110.035 125.496H79.0495L74.4911 135.751Z" fill="black"/>
<path d="M149.577 132.784C145.664 132.765 142.745 132.467 140.818 131.891C138.911 131.296 137.888 130.086 137.749 128.261L137.69 127.512H125.653L125.683 128.376C125.941 133.754 128.106 137.634 132.178 140.015C136.25 142.377 142.069 143.559 149.637 143.559C156.907 143.559 162.518 142.358 166.47 139.958C170.423 137.557 172.399 134.407 172.399 130.508C172.399 127.685 171.506 125.476 169.718 123.882C167.93 122.288 165.567 121.28 162.627 120.857V120.742C165.15 120.147 167.185 119.052 168.735 117.458C170.284 115.864 171.059 113.934 171.059 111.667C171.078 108.114 169.311 105.301 165.755 103.227C162.2 101.152 156.837 100.115 149.667 100.115C142.198 100.115 136.468 101.392 132.476 103.947C128.503 106.501 126.368 110.256 126.07 115.211L125.981 116.306H138.017L138.137 115.384C138.276 114.059 139.249 112.983 141.056 112.157C142.864 111.331 145.694 110.918 149.548 110.918C152.666 110.918 154.91 111.159 156.281 111.639C157.671 112.119 158.366 112.753 158.366 113.54C158.366 114.635 157.751 115.384 156.519 115.787C155.288 116.171 153.431 116.363 150.948 116.363H142.635V126.878H150.918C153.858 126.878 156.033 127.051 157.443 127.397C158.853 127.723 159.548 128.444 159.528 129.558C159.528 131.056 158.734 131.968 157.145 132.294C155.576 132.621 153.053 132.784 149.577 132.784Z" fill="black"/>
<path d="M177.353 142.81H207.773C213.891 142.81 218.876 141.782 222.729 139.727C226.603 137.672 228.539 134.676 228.539 130.739C228.539 127.858 227.606 125.592 225.739 123.94C223.891 122.288 221.428 121.251 218.35 120.829V120.713C220.654 120.099 222.531 119.023 223.981 117.487C225.451 115.931 226.185 113.972 226.185 111.61C226.185 108.134 224.527 105.474 221.21 103.63C217.893 101.786 213.106 100.864 206.849 100.864H177.353V142.81ZM190.195 132.784V125.841H205.181C208.339 125.841 210.802 126.101 212.57 126.619C214.357 127.118 215.251 127.944 215.251 129.097C215.251 130.479 214.357 131.44 212.57 131.978C210.802 132.515 208.339 132.784 205.181 132.784H190.195ZM190.195 117.199V111.207H204.376C207.455 111.207 209.749 111.456 211.259 111.956C212.788 112.455 213.553 113.214 213.553 114.231C213.553 115.211 212.788 115.95 211.259 116.45C209.749 116.949 207.455 117.199 204.376 117.199H190.195Z" fill="black"/>
<path d="M281.191 142.81V100.864H267.366L249.609 121.549C249.113 122.106 248.755 122.567 248.537 122.932C248.338 123.277 248.149 123.661 247.971 124.084H247.702C247.702 123.565 247.702 123.085 247.702 122.644C247.722 122.202 247.732 121.712 247.732 121.174V100.864H235.427V142.81H249.252L267.009 121.808C267.525 121.27 267.883 120.8 268.081 120.396C268.3 119.974 268.508 119.551 268.707 119.129H268.975C268.955 119.532 268.936 119.955 268.916 120.396C268.896 120.819 268.886 121.347 268.886 121.981V142.81H281.191Z" fill="black"/>
<path d="M288.098 142.81H318.517C324.635 142.81 329.621 141.782 333.474 139.727C337.347 137.672 339.284 134.676 339.284 130.739C339.284 127.858 338.35 125.592 336.483 123.94C334.636 122.288 332.173 121.251 329.094 120.829V120.713C331.398 120.099 333.275 119.023 334.725 117.487C336.195 115.931 336.93 113.972 336.93 111.61C336.93 108.134 335.272 105.474 331.954 103.63C328.637 101.786 323.851 100.864 317.594 100.864H288.098V142.81ZM300.939 132.784V125.841H315.925C319.084 125.841 321.547 126.101 323.314 126.619C325.102 127.118 325.996 127.944 325.996 129.097C325.996 130.479 325.102 131.44 323.314 131.978C321.547 132.515 319.084 132.784 315.925 132.784H300.939ZM300.939 117.199V111.207H315.121C318.2 111.207 320.494 111.456 322.003 111.956C323.533 112.455 324.297 113.214 324.297 114.231C324.297 115.211 323.533 115.95 322.003 116.45C320.494 116.949 318.2 117.199 315.121 117.199H300.939Z" fill="black"/>
<path d="M339.975 142.81H355.11L369.828 117.4C370.305 116.575 370.752 115.729 371.169 114.865C371.606 114.001 371.964 113.319 372.242 112.82H372.42C372.718 113.3 373.086 113.963 373.523 114.808C373.96 115.633 374.417 116.469 374.893 117.314L389.582 142.81H404.896L379.66 100.691H365.091L339.975 142.81ZM352.25 135.751H392.233L387.794 125.496H356.808L352.25 135.751Z" fill="black"/>
<path d="M402.876 112.618H423.582V142.81H436.84V112.618H457.517V100.864H402.876V112.618Z" fill="black"/>
<path d="M462.976 100.864H475.4V113.338H488.837C494.716 113.319 498.976 114.664 501.618 117.372C504.26 120.08 505.581 123.642 505.581 128.06C505.581 132.746 504.23 136.376 501.529 138.949C498.847 141.523 494.676 142.81 489.015 142.81H462.976V100.864ZM475.4 124.43V131.862H486.602C488.906 131.862 490.574 131.613 491.607 131.113C492.66 130.595 493.186 129.625 493.186 128.204C493.186 126.974 492.66 126.043 491.607 125.409C490.574 124.756 488.906 124.43 486.602 124.43H475.4Z" fill="black"/>
<path d="M549.091 142.81H579.511C585.629 142.81 590.614 141.782 594.467 139.727C598.341 137.672 600.277 134.676 600.277 130.739C600.277 127.858 599.344 125.592 597.477 123.94C595.629 122.288 593.166 121.251 590.088 120.829V120.713C592.392 120.099 594.269 119.023 595.719 117.487C597.188 115.931 597.923 113.972 597.923 111.61C597.923 108.134 596.265 105.474 592.948 103.63C589.631 101.786 584.844 100.864 578.587 100.864H549.091V142.81ZM561.933 132.784V125.841H576.919C580.077 125.841 582.54 126.101 584.308 126.619C586.095 127.118 586.989 127.944 586.989 129.097C586.989 130.479 586.095 131.44 584.308 131.978C582.54 132.515 580.077 132.784 576.919 132.784H561.933ZM561.933 117.199V111.207H576.114C579.193 111.207 581.487 111.456 582.997 111.956C584.526 112.455 585.291 113.214 585.291 114.231C585.291 115.211 584.526 115.95 582.997 116.45C581.487 116.949 579.193 117.199 576.114 117.199H561.933Z" fill="black"/>
<path d="M600.968 142.81H616.104L630.822 117.4C631.298 116.575 631.745 115.729 632.162 114.865C632.599 114.001 632.957 113.319 633.235 112.82H633.414C633.712 113.3 634.079 113.963 634.516 114.808C634.953 115.633 635.41 116.469 635.887 117.314L650.575 142.81H665.889L640.654 100.691H626.084L600.968 142.81ZM613.243 135.751H653.227L648.787 125.496H617.802L613.243 135.751Z" fill="black"/>
<path d="M668.1 100.864V142.81H732.812V100.864H720.417V131.257H706.653V100.864H694.259V131.257H680.494V100.864H668.1Z" fill="black"/>
<path d="M779.898 142.81H806.206C811.648 142.81 815.73 141.657 818.451 139.353C821.172 137.029 822.533 133.658 822.533 129.241C822.533 124.977 821.182 121.693 818.481 119.388C815.799 117.064 811.727 115.902 806.265 115.902H792.322V112.244H819.434V100.864H779.898V142.81ZM792.322 125.928H803.763C806.027 125.928 807.675 126.197 808.708 126.734C809.761 127.253 810.287 128.098 810.287 129.27C810.287 130.537 809.771 131.401 808.738 131.862C807.705 132.304 806.047 132.525 803.763 132.525H792.322V125.928Z" fill="black"/>
<path d="M873.884 142.81V100.864H860.06L842.303 121.549C841.806 122.106 841.448 122.567 841.23 122.932C841.031 123.277 840.843 123.661 840.664 124.084H840.396C840.396 123.565 840.396 123.085 840.396 122.644C840.416 122.202 840.426 121.712 840.426 121.174V100.864H828.121V142.81H841.945L859.702 121.808C860.219 121.27 860.576 120.8 860.775 120.396C860.993 119.974 861.202 119.551 861.4 119.129H861.669C861.649 119.532 861.629 119.955 861.609 120.396C861.589 120.819 861.579 121.347 861.579 121.981V142.81H873.884Z" fill="black"/>
<path d="M903.462 132.784C899.549 132.765 896.629 132.467 894.703 131.891C892.796 131.296 891.773 130.086 891.634 128.261L891.574 127.512H879.538L879.567 128.376C879.826 133.754 881.991 137.634 886.062 140.015C890.134 142.377 895.954 143.559 903.522 143.559C910.791 143.559 916.402 142.358 920.355 139.958C924.308 137.557 926.284 134.407 926.284 130.508C926.284 127.685 925.39 125.476 923.603 123.882C921.815 122.288 919.451 121.28 916.512 120.857V120.742C919.034 120.147 921.07 119.052 922.619 117.458C924.169 115.864 924.943 113.934 924.943 111.667C924.963 108.114 923.195 105.301 919.64 103.227C916.085 101.152 910.722 100.115 903.551 100.115C896.083 100.115 890.353 101.392 886.36 103.947C882.388 106.501 880.253 110.256 879.955 115.211L879.865 116.306H891.902L892.021 115.384C892.16 114.059 893.134 112.983 894.941 112.157C896.749 111.331 899.579 110.918 903.432 110.918C906.551 110.918 908.795 111.159 910.166 111.639C911.556 112.119 912.251 112.753 912.251 113.54C912.251 114.635 911.635 115.384 910.404 115.787C909.173 116.171 907.315 116.363 904.833 116.363H896.52V126.878H904.803C907.742 126.878 909.917 127.051 911.328 127.397C912.738 127.723 913.433 128.444 913.413 129.558C913.413 131.056 912.619 131.968 911.03 132.294C909.461 132.621 906.938 132.784 903.462 132.784Z" fill="black"/>
<path d="M932.153 142.81H945.263V127.253H973.984V142.81H987.093V100.864H973.984V115.096H945.263V100.864H932.153V142.81Z" fill="black"/>
<path d="M996.127 142.81H1043.02V131.517H1008.67V126.85H1039.15V116.277H1008.67V112.417H1042.52V100.864H996.127V142.81Z" fill="black"/>
<path d="M1048.45 121.405C1048.45 128.761 1051.42 134.311 1057.36 138.056C1063.32 141.801 1071.2 143.674 1081.02 143.674C1090.69 143.674 1098.04 142.262 1103.06 139.439C1108.11 136.597 1110.86 132.294 1111.32 126.533L1111.4 125.265H1098.21L1098.06 126.417C1097.82 127.916 1096.42 129.366 1093.86 130.768C1091.29 132.17 1087.04 132.871 1081.1 132.871C1075.38 132.871 1070.83 132.016 1067.43 130.307C1064.05 128.597 1062.36 125.736 1062.36 121.722V121.837C1062.36 119.033 1064.03 116.517 1067.37 114.289C1070.71 112.061 1075.29 110.947 1081.13 110.947C1086.32 110.947 1090.17 111.639 1092.69 113.021C1095.22 114.404 1096.96 115.883 1097.94 117.458L1098.15 118.553H1111.4L1111.23 117.314C1109.66 111.36 1106.58 106.991 1101.99 104.206C1097.42 101.402 1090.41 100 1080.96 100C1071.38 100 1063.57 101.853 1057.51 105.56C1051.47 109.248 1048.45 114.798 1048.45 122.211V121.405Z" fill="black"/>
<path d="M12.4247 179.902V171.864H0.00070103V184.05C-0.039024 189.754 1.60956 193.893 4.94647 196.467C8.30323 199.04 13.8449 200.327 21.5714 200.327C24.3919 200.327 26.9839 200.202 29.3476 199.953C31.7112 199.703 34.1344 199.261 36.6172 198.627V187.219C34.0748 187.815 31.7211 188.218 29.5561 188.429C27.3911 188.64 24.9282 188.746 22.1673 188.746C18.6913 188.746 16.1986 188.141 14.689 186.931C13.1795 185.702 12.4247 183.359 12.4247 179.902ZM43.291 171.864H30.867V213.81H43.291V171.864Z" fill="black"/>
<path d="M48.0628 213.81H94.9582V202.517H60.606V197.85H91.085V187.277H60.606V183.417H94.4517V171.864H48.0628V213.81Z" fill="black"/>
<path d="M103.575 213.81H116.684V204.562H134.709C141.919 204.6 147.292 203.16 150.827 200.241C154.363 197.321 156.131 193.317 156.131 188.228C156.131 182.927 154.343 178.874 150.768 176.07C147.193 173.266 141.899 171.864 134.888 171.864H103.575V213.81ZM116.684 193.96V182.956H132.087C136.04 182.956 138.85 183.388 140.519 184.252C142.187 185.116 143.021 186.509 143.021 188.429C143.021 190.292 142.187 191.685 140.519 192.606C138.85 193.509 136.04 193.96 132.087 193.96H116.684Z" fill="black"/>
<path d="M171.123 213.81H218.018V202.517H183.666V197.85H214.145V187.277H183.666V183.417H217.512V171.864H171.123V213.81Z" fill="black"/>
<path d="M246.865 203.784C242.952 203.765 240.032 203.467 238.105 202.891C236.199 202.296 235.176 201.086 235.037 199.261L234.977 198.512H222.94L222.97 199.376C223.228 204.754 225.393 208.634 229.465 211.015C233.537 213.377 239.357 214.559 246.924 214.559C254.194 214.559 259.805 213.358 263.758 210.958C267.71 208.557 269.687 205.407 269.687 201.508C269.687 198.685 268.793 196.476 267.005 194.882C265.218 193.288 262.854 192.28 259.914 191.857V191.742C262.437 191.147 264.473 190.052 266.022 188.458C267.571 186.864 268.346 184.934 268.346 182.667C268.366 179.114 266.598 176.301 263.043 174.227C259.487 172.152 254.124 171.115 246.954 171.115C239.486 171.115 233.755 172.392 229.763 174.947C225.791 177.501 223.655 181.256 223.357 186.211L223.268 187.306H235.305L235.424 186.384C235.563 185.059 236.536 183.983 238.344 183.157C240.151 182.331 242.982 181.918 246.835 181.918C249.953 181.918 252.198 182.159 253.568 182.639C254.959 183.119 255.654 183.753 255.654 184.54C255.654 185.635 255.038 186.384 253.807 186.787C252.575 187.171 250.718 187.363 248.235 187.363H239.923V197.878H248.205C251.145 197.878 253.32 198.051 254.73 198.397C256.14 198.723 256.836 199.444 256.816 200.558C256.816 202.056 256.021 202.968 254.432 203.294C252.863 203.621 250.341 203.784 246.865 203.784Z" fill="black"/>
<path d="M358.752 213.81V171.864H344.928L327.171 192.549C326.674 193.106 326.317 193.567 326.098 193.932C325.9 194.277 325.711 194.661 325.532 195.084H325.264C325.264 194.565 325.264 194.085 325.264 193.644C325.284 193.202 325.294 192.712 325.294 192.174V171.864H312.989V213.81H326.813L344.57 192.808C345.087 192.27 345.444 191.8 345.643 191.396C345.861 190.974 346.07 190.551 346.269 190.129H346.537C346.517 190.532 346.497 190.955 346.477 191.396C346.457 191.819 346.447 192.347 346.447 192.981V213.81H358.752Z" fill="black"/>
<path d="M368.1 213.81H381.21V198.253H409.931V213.81H423.04V171.864H409.931V186.096H381.21V171.864H368.1V213.81Z" fill="black"/>
<path d="M427.843 183.618H448.549V213.81H461.808V183.618H482.484V171.864H427.843V183.618Z" fill="black"/>
<path d="M487.943 213.81H534.838V202.517H500.486V197.85H530.965V187.277H500.486V183.417H534.332V171.864H487.943V213.81Z" fill="black"/>
<path d="M543.454 213.81H556.564V204.562H574.589C581.799 204.6 587.172 203.16 590.707 200.241C594.243 197.321 596.011 193.317 596.011 188.228C596.011 182.927 594.223 178.874 590.648 176.07C587.073 173.266 581.779 171.864 574.768 171.864H543.454V213.81ZM556.564 193.96V182.956H571.967C575.92 182.956 578.73 183.388 580.399 184.252C582.067 185.116 582.901 186.509 582.901 188.429C582.901 190.292 582.067 191.685 580.399 192.606C578.73 193.509 575.92 193.96 571.967 193.96H556.564Z" fill="black"/>
<path d="M611.003 213.81H624.112V198.253H652.833V213.81H665.943V171.864H652.833V186.096H624.112V171.864H611.003V213.81Z" fill="black"/>
<path d="M674.976 213.81H721.871V202.517H687.519V197.85H717.998V187.277H687.519V183.417H721.365V171.864H674.976V213.81Z" fill="black"/>
<path d="M726.257 183.618H746.964V213.81H760.222V183.618H780.899V171.864H726.257V183.618Z" fill="black"/>
</svg>
