<svg width="672" height="123" viewBox="0 0 672 123" fill="none" xmlns="http://www.w3.org/2000/svg">
<path d="M3.66699 42.7856H16.3428V27.229H44.1143V42.7856H56.79V0.840332H44.1143V15.0718H16.3428V0.840332H3.66699V42.7856ZM59.5326 42.7856H74.1674L88.3988 17.3765C88.8598 16.5506 89.2919 15.7056 89.6952 14.8413C90.1177 13.9771 90.4634 13.2952 90.7323 12.7959H90.9052C91.1933 13.276 91.5486 13.9386 91.9711 14.7837C92.3936 15.6095 92.8354 16.445 93.2963 17.29L107.499 42.7856H122.307L97.9057 0.66748H83.8183L59.5326 42.7856ZM71.4018 35.7275H110.063L105.77 25.4717H75.8095L71.4018 35.7275ZM124.444 0.840332V42.7856H187.016V0.840332H175.032V31.2334H161.722V0.840332H149.738V31.2334H136.429V0.840332H124.444ZM237.06 42.7856V0.840332H223.693L206.523 21.5249C206.043 22.0819 205.697 22.5428 205.486 22.9077C205.294 23.2534 205.112 23.6375 204.939 24.0601H204.68C204.68 23.5415 204.68 23.0614 204.68 22.6196C204.699 22.1779 204.708 21.6882 204.708 21.1504V0.840332H192.81V42.7856H206.178L223.348 21.7842C223.847 21.2464 224.193 20.7759 224.385 20.3726C224.596 19.95 224.798 19.5275 224.99 19.105H225.249C225.23 19.5083 225.21 19.9308 225.191 20.3726C225.172 20.7951 225.162 21.3232 225.162 21.957V42.7856H237.06ZM282.59 42.7856H312.003C317.918 42.7856 322.739 41.7581 326.465 39.7031C330.21 37.6481 332.083 34.652 332.083 30.7148C332.083 27.834 331.18 25.5677 329.375 23.916C327.589 22.2643 325.207 21.2272 322.23 20.8047V20.6895C324.458 20.0749 326.273 18.9993 327.675 17.4629C329.096 15.9072 329.807 13.9482 329.807 11.5859C329.807 8.1097 328.203 5.44971 324.996 3.60596C321.788 1.76221 317.16 0.840332 311.11 0.840332H282.59V42.7856ZM295.006 32.7603V25.8174H309.497C312.55 25.8174 314.932 26.0767 316.641 26.5952C318.37 27.0946 319.234 27.9204 319.234 29.0728C319.234 30.4556 318.37 31.4159 316.641 31.9536C314.932 32.4914 312.55 32.7603 309.497 32.7603H295.006ZM295.006 17.1748V11.1826H308.719C311.696 11.1826 313.914 11.4323 315.374 11.9316C316.853 12.431 317.592 13.1896 317.592 14.2075C317.592 15.187 316.853 15.9264 315.374 16.4258C313.914 16.9251 311.696 17.1748 308.719 17.1748H295.006ZM338.743 42.7856H384.088V31.4927H350.872V26.8257H380.343V16.2529H350.872V12.3926H383.598V0.840332H338.743V42.7856ZM429.093 51.0537H440.386V31.0605H388.098V51.0537H399.391V42.7856H429.093V51.0537ZM396.453 0.840332L395.358 20.7471C395.127 24.7227 394.724 27.738 394.148 29.793C393.572 31.8288 392.496 33.9126 390.921 36.0444H402.33C403.443 34.4119 404.289 32.597 404.865 30.5996C405.46 28.583 405.854 25.5197 406.046 21.4097L406.449 12.5654H422.611V41.835H434.538V0.840332H396.453ZM452.295 30.4556V42.9009C452.814 43.1121 453.476 43.2754 454.283 43.3906C455.09 43.5251 456.059 43.5923 457.193 43.5923C461.591 43.5923 465.038 42.4784 467.535 40.2505C470.051 38.0226 472.48 35.113 474.823 31.5215L493.808 0.840332H480.009L469.465 18.7305C469.215 19.0378 469.014 19.3258 468.86 19.5947C468.726 19.8444 468.601 20.1229 468.486 20.4302H468.284C468.13 20.1421 467.986 19.8636 467.852 19.5947C467.737 19.3066 467.573 19.0186 467.362 18.7305L456.184 0.840332H443.076L461.658 28.8135L462.263 26.9697C461.303 28.3525 460.467 29.3512 459.757 29.9658C459.065 30.5804 458.028 30.8877 456.645 30.8877C455.551 30.8877 454.696 30.8589 454.081 30.8013C453.486 30.7244 452.891 30.6092 452.295 30.4556ZM499.539 0.840332V42.7856H556.609V51.0537H567.931V31.2622H562.111V0.840332H550.127V31.2622H536.817V0.840332H524.804V31.2622H511.523V0.840332H499.539ZM619.078 42.7856V0.840332H605.711L588.541 21.5249C588.061 22.0819 587.716 22.5428 587.504 22.9077C587.312 23.2534 587.13 23.6375 586.957 24.0601H586.698C586.698 23.5415 586.698 23.0614 586.698 22.6196C586.717 22.1779 586.726 21.6882 586.726 21.1504V0.840332H574.828V42.7856H588.196L605.366 21.7842C605.865 21.2464 606.211 20.7759 606.403 20.3726C606.614 19.95 606.816 19.5275 607.008 19.105H607.267C607.248 19.5083 607.229 19.9308 607.209 20.3726C607.19 20.7951 607.181 21.3232 607.181 21.957V42.7856H619.078ZM625.757 42.7856H671.102V31.4927H637.886V26.8257H667.357V16.2529H637.886V12.3926H670.612V0.840332H625.757V42.7856ZM0.584473 92.3809C0.584473 99.7367 3.45573 105.287 9.19824 109.032C14.96 112.777 22.5846 114.65 32.0723 114.65C41.4255 114.65 48.5316 113.238 53.3906 110.415C58.2689 107.573 60.9289 103.271 61.3706 97.5088L61.457 96.2412H48.6948L48.5508 97.3936C48.3203 98.8916 46.9663 100.342 44.4888 101.744C42.0112 103.146 37.9012 103.847 32.1587 103.847C26.6274 103.847 22.2197 102.992 18.9355 101.283C15.6706 99.5734 14.0381 96.7118 14.0381 92.6978V92.813C14.0381 90.009 15.6514 87.493 18.8779 85.2651C22.1045 83.0373 26.541 81.9233 32.1875 81.9233C37.2002 81.9233 40.9261 82.6147 43.3652 83.9976C45.8044 85.3804 47.4945 86.8592 48.4355 88.4341L48.6372 89.5288H61.457L61.2842 88.29C59.7669 82.3363 56.79 77.967 52.3535 75.1821C47.9362 72.3781 41.1566 70.9761 32.0146 70.9761C22.7575 70.9761 15.2 72.8294 9.34229 76.5361C3.50374 80.2236 0.584473 85.7741 0.584473 93.1875V92.3809ZM65.8705 113.786H77.8837V83.3638H97.1278V113.786H109.141V71.8403H65.8705V113.786ZM115.525 113.786H160.87V102.493H127.653V97.8257H157.125V87.2529H127.653V83.3926H160.38V71.8403H115.525V113.786ZM206.998 122.054H218.32V102.262H212.5V71.8403H200.487V102.262H181.214V71.8403H169.201V113.786H206.998V122.054ZM267.137 113.786V71.8403H253.769L236.599 92.5249C236.119 93.0819 235.774 93.5428 235.562 93.9077C235.37 94.2534 235.188 94.6375 235.015 95.0601H234.756C234.756 94.5415 234.756 94.0614 234.756 93.6196C234.775 93.1779 234.785 92.6882 234.785 92.1504V71.8403H222.887V113.786H236.254L253.424 92.7842C253.923 92.2464 254.269 91.7759 254.461 91.3726C254.672 90.95 254.874 90.5275 255.066 90.105H255.325C255.306 90.5083 255.287 90.9308 255.267 91.3726C255.248 91.7951 255.239 92.3232 255.239 92.957V113.786H267.137ZM272.248 113.786H286.883L301.115 88.3765C301.576 87.5506 302.008 86.7056 302.411 85.8413C302.833 84.9771 303.179 84.2952 303.448 83.7959H303.621C303.909 84.276 304.264 84.9386 304.687 85.7837C305.109 86.6095 305.551 87.445 306.012 88.29L320.215 113.786H335.022L310.621 71.6675H296.534L272.248 113.786ZM284.117 106.728H322.779L318.486 96.4717H288.525L284.117 106.728ZM349.256 71.8403L347.931 94.4839C347.739 97.4416 347.268 99.3237 346.519 100.13C345.77 100.918 344.541 101.312 342.832 101.312C342.352 101.312 341.919 101.292 341.535 101.254C341.151 101.196 340.738 101.11 340.297 100.995V113.872C340.854 114.064 341.516 114.208 342.284 114.304C343.072 114.419 344.051 114.477 345.223 114.477C350.101 114.477 353.462 112.902 355.306 109.752C357.15 106.603 358.235 102.377 358.561 97.0767L359.454 83.1621H375.069V113.786H387.053V71.8403H349.256ZM439.659 113.786V71.8403H426.291L409.121 92.5249C408.641 93.0819 408.296 93.5428 408.084 93.9077C407.892 94.2534 407.71 94.6375 407.537 95.0601H407.278C407.278 94.5415 407.278 94.0614 407.278 93.6196C407.297 93.1779 407.307 92.6882 407.307 92.1504V71.8403H395.409V113.786H408.776L425.946 92.7842C426.445 92.2464 426.791 91.7759 426.983 91.3726C427.194 90.95 427.396 90.5275 427.588 90.105H427.847C427.828 90.5083 427.809 90.9308 427.789 91.3726C427.77 91.7951 427.761 92.3232 427.761 92.957V113.786H439.659ZM444.73 92.3809C444.73 99.7367 447.601 105.287 453.344 109.032C459.105 112.777 466.73 114.65 476.218 114.65C485.571 114.65 492.677 113.238 497.536 110.415C502.414 107.573 505.074 103.271 505.516 97.5088L505.603 96.2412H492.84L492.696 97.3936C492.466 98.8916 491.112 100.342 488.634 101.744C486.157 103.146 482.047 103.847 476.304 103.847C470.773 103.847 466.365 102.992 463.081 101.283C459.816 99.5734 458.184 96.7118 458.184 92.6978V92.813C458.184 90.009 459.797 87.493 463.023 85.2651C466.25 83.0373 470.687 81.9233 476.333 81.9233C481.346 81.9233 485.072 82.6147 487.511 83.9976C489.95 85.3804 491.64 86.8592 492.581 88.4341L492.783 89.5288H505.603L505.43 88.29C503.912 82.3363 500.936 77.967 496.499 75.1821C492.082 72.3781 485.302 70.9761 476.16 70.9761C466.903 70.9761 459.346 72.8294 453.488 76.5361C447.649 80.2236 444.73 85.7741 444.73 93.1875V92.3809ZM508.49 83.5942H528.512V113.786H541.332V83.5942H561.325V71.8403H508.49V83.5942ZM566.344 71.8403H578.357V84.3145H591.35C597.035 84.2952 601.154 85.6396 603.708 88.3477C606.263 91.0557 607.54 94.6183 607.54 99.0356C607.54 103.722 606.234 107.352 603.622 109.925C601.029 112.499 596.996 113.786 591.522 113.786H566.344V71.8403ZM578.357 95.4058V102.838H589.189C591.417 102.838 593.03 102.589 594.029 102.089C595.047 101.571 595.556 100.601 595.556 99.1797C595.556 97.9505 595.047 97.019 594.029 96.3853C593.03 95.7323 591.417 95.4058 589.189 95.4058H578.357ZM611.487 113.786H624.335V71.8403H611.487V113.786Z" fill="black"/>
</svg>
