<svg width="636" height="128" viewBox="0 0 636 128" fill="none" xmlns="http://www.w3.org/2000/svg">
<path d="M633.503 96.1182C633.473 98.9902 631.772 101.92 627.771 104.852C623.77 107.783 617.744 110.497 609.77 112.917C593.847 117.751 570.706 121.251 541.971 123.256C484.539 127.264 405.193 125.272 317.563 116.308C229.934 107.345 150.711 93.1183 93.4756 77.38C64.8437 69.5069 41.8023 61.2791 25.9798 53.1845C18.061 49.1333 12.0513 45.1658 8.05981 41.3651C4.03664 37.5342 2.32694 34.1307 2.35795 31.1859C2.38819 28.314 4.08901 25.3843 8.09032 22.4525C12.0909 19.5212 18.1168 16.8069 26.0906 14.3867C42.0143 9.55349 65.1554 6.0531 93.8901 4.04796C151.322 0.0403449 230.668 2.03249 318.298 10.9958C405.927 19.9589 485.15 34.1859 542.385 49.9242C571.017 57.7973 594.059 66.0251 609.881 74.1197C617.8 78.1709 623.81 82.1384 627.801 85.9391C631.824 89.77 633.534 93.1735 633.503 96.1182Z" stroke="#E33A30" stroke-width="4.09172"/>
</svg>
