<svg width="1268" height="1277" viewBox="0 0 1268 1277" fill="none" xmlns="http://www.w3.org/2000/svg">
<path d="M634 2.07881e-06L668.529 353.904L786.683 18.5537L735.581 370.443L930.493 73.1364L796.729 402.562L1057.07 160.576L848.42 448.392L1159.06 275.791L887.65 505.27L1230.54 412.085L912.138 569.891L1267.35 561.537L920.462 638.5L1267.35 715.463L912.138 707.109L1230.54 864.915L887.65 771.73L1159.06 1001.21L848.42 828.608L1057.07 1116.42L796.729 874.438L930.493 1203.86L735.581 906.557L786.683 1258.45L668.529 923.096L634 1277L599.471 923.096L481.317 1258.45L532.419 906.557L337.507 1203.86L471.271 874.438L210.928 1116.42L419.58 828.608L108.936 1001.21L380.35 771.73L37.4597 864.915L355.862 707.109L0.651731 715.463L347.538 638.5L0.651732 561.537L355.862 569.891L37.4597 412.085L380.35 505.27L108.936 275.791L419.58 448.392L210.928 160.576L471.271 402.562L337.507 73.1364L532.419 370.443L481.317 18.5537L599.471 353.904L634 2.07881e-06Z" fill="white"/>
</svg>
