<svg width="45" height="45" viewBox="0 0 45 45" fill="none" xmlns="http://www.w3.org/2000/svg">
<circle cx="22.5" cy="22.5" r="22.5" fill="#E0D0C9"/>
<path d="M22.4994 11C17.8308 11 14.0322 14.7986 14.0322 19.4677C14.0322 20.6855 14.2815 21.8483 14.7727 22.924C16.8898 27.5566 20.9487 32.4476 22.1426 33.8362C22.232 33.94 22.3624 33.9998 22.4997 33.9998C22.6369 33.9998 22.7673 33.94 22.8567 33.8362C24.0501 32.4479 28.1091 27.5571 30.2268 22.924C30.7183 21.8483 30.9673 20.6855 30.9673 19.4677C30.9669 14.7986 27.1683 11 22.4994 11ZM22.4994 23.8658C20.0743 23.8658 18.1011 21.8926 18.1011 19.4674C18.1011 17.0421 20.0743 15.0688 22.4994 15.0688C24.9246 15.0688 26.8978 17.0421 26.8978 19.4674C26.898 21.8926 24.9248 23.8658 22.4994 23.8658Z" fill="#002C61"/>
</svg>
