<svg width="45" height="45" viewBox="0 0 45 45" fill="none" xmlns="http://www.w3.org/2000/svg">
<circle cx="22.5" cy="22.5" r="22.5" fill="#E0D0C9"/>
<g clip-path="url(#clip0_101_71)">
<path d="M30.5965 28.2253L27.8166 25.4452C27.2629 24.8937 26.346 24.9105 25.7731 25.4837L24.3726 26.8838C24.2841 26.8351 24.1925 26.7841 24.0962 26.7301C23.2118 26.2401 22.0014 25.5684 20.7277 24.2938C19.4501 23.0164 18.7779 21.8041 18.2863 20.9191C18.2345 20.8254 18.1848 20.735 18.1357 20.6491L19.0756 19.7106L19.5377 19.2479C20.1116 18.6739 20.1274 17.7573 19.575 17.2042L16.7952 14.4238C16.2428 13.8715 15.3255 13.8882 14.7516 14.4622L13.9682 15.2502L13.9896 15.2714C13.7269 15.6066 13.5074 15.9932 13.344 16.4102C13.1934 16.807 13.0997 17.1857 13.0568 17.5652C12.6897 20.6081 14.0803 23.3892 17.8541 27.163C23.0706 32.3792 27.2744 31.9851 27.4558 31.9659C27.8508 31.9187 28.2293 31.8243 28.614 31.6749C29.0273 31.5135 29.4136 31.2943 29.7486 31.0321L29.7657 31.0473L30.5594 30.2701C31.1321 29.6962 31.1486 28.7793 30.5965 28.2253Z" fill="#002C61"/>
</g>
<defs>
<clipPath id="clip0_101_71">
<rect width="18" height="18" fill="white" transform="translate(13 14)"/>
</clipPath>
</defs>
</svg>
