<svg width="885" height="520" viewBox="0 0 885 520" fill="none" xmlns="http://www.w3.org/2000/svg">
<path d="M274 -710L307.284 -369.122L421.179 -692.129L371.919 -353.191L559.805 -639.555L430.863 -322.255L681.82 -555.334L480.69 -278.111L780.135 -444.36L518.505 -223.326L849.035 -313.082L542.111 -161.083L884.516 -169.13L550.135 -95L884.516 -20.8699L542.111 -28.9166L849.035 123.082L518.505 33.3264L780.135 254.36L480.69 88.1114L681.82 365.334L430.863 132.255L559.805 449.555L371.919 163.191L421.179 502.129L307.284 179.122L274 520L240.716 179.122L126.821 502.129L176.081 163.191L-11.8048 449.555L117.137 132.255L-133.82 365.334L67.31 88.1114L-232.135 254.36L29.4946 33.3264L-301.035 123.082L5.88897 -28.9166L-336.516 -20.8699L-2.13501 -95L-336.516 -169.13L5.88898 -161.083L-301.035 -313.082L29.4946 -223.326L-232.135 -444.36L67.31 -278.111L-133.82 -555.334L117.137 -322.255L-11.8047 -639.555L176.081 -353.191L126.821 -692.129L240.716 -369.122L274 -710Z" fill="white"/>
</svg>
