<svg width="346" height="203" viewBox="0 0 346 203" fill="none" xmlns="http://www.w3.org/2000/svg">
<path d="M133 -225L144.582 -106.385L184.214 -218.782L167.073 -100.842L232.451 -200.488L187.583 -90.0772L274.908 -171.181L204.921 -74.7168L309.119 -132.566L218.08 -55.6534L333.093 -86.8854L226.294 -33.9949L345.44 -36.7948L229.086 -11L345.44 14.7948L226.294 11.9949L333.093 64.8854L218.08 33.6534L309.119 110.566L204.921 52.7168L274.908 149.181L187.583 68.0772L232.451 178.488L167.073 78.842L184.214 196.782L144.582 84.3854L133 203L121.418 84.3854L81.7865 196.782L98.9274 78.842L33.5492 178.488L78.4169 68.0772L-8.90825 149.181L61.0786 52.7168L-43.1185 110.566L47.9201 33.6534L-67.0935 64.8854L39.7061 11.9949L-79.4397 14.7948L36.914 -11L-79.4397 -36.7948L39.7061 -33.9949L-67.0935 -86.8854L47.9201 -55.6534L-43.1185 -132.566L61.0786 -74.7168L-8.90825 -171.181L78.4169 -90.0772L33.5492 -200.488L98.9274 -100.842L81.7865 -218.782L121.418 -106.385L133 -225Z" fill="white"/>
</svg>
